<?xml version="1.0" encoding="UTF-8" standalone="no"?>
<svg
   xmlns:dc="http://purl.org/dc/elements/1.1/"
   xmlns:cc="http://creativecommons.org/ns#"
   xmlns:rdf="http://www.w3.org/1999/02/22-rdf-syntax-ns#"
   xmlns:svg="http://www.w3.org/2000/svg"
   xmlns="http://www.w3.org/2000/svg"
   xmlns:sodipodi="http://sodipodi.sourceforge.net/DTD/sodipodi-0.dtd"
   xmlns:inkscape="http://www.inkscape.org/namespaces/inkscape"
   viewBox="0 0 196 213.5"
   width="196"
   height="213.5"
   preserveAspectRatio="xMidYMid meet"
   id="svg2"
   version="1.1"
   inkscape:version="0.91 r13725"
   sodipodi:docname="HMS_Malcolm.svg">
  <metadata
     id="metadata627">
    <rdf:RDF>
      <cc:Work
         rdf:about="">
        <dc:format>image/svg+xml</dc:format>
        <dc:type
           rdf:resource="http://purl.org/dc/dcmitype/StillImage" />
        <dc:title></dc:title>
      </cc:Work>
    </rdf:RDF>
  </metadata>
  <sodipodi:namedview
     pagecolor="#ffffff"
     bordercolor="#666666"
     borderopacity="1"
     objecttolerance="10"
     gridtolerance="10"
     guidetolerance="10"
     inkscape:pageopacity="0"
     inkscape:pageshadow="2"
     inkscape:window-width="1863"
     inkscape:window-height="1056"
     id="namedview625"
     showgrid="false"
     fit-margin-top="0"
     fit-margin-left="0"
     fit-margin-right="0"
     fit-margin-bottom="0"
     inkscape:zoom="1"
     inkscape:cx="-216.89967"
     inkscape:cy="5.5895234"
     inkscape:window-x="57"
     inkscape:window-y="24"
     inkscape:window-maximized="1"
     inkscape:current-layer="svg2" />
  <defs
     id="defs4">
    <clipPath
       id="animationMask_NRNzFwZpSb">
      <rect
         width="250"
         height="250"
         x="0"
         y="0"
         id="rect7" />
    </clipPath>
    <mask
       id="ly_vsblmBFHcf"
       mask-type="alpha">
      <g
         style="opacity:1"
         id="g10">
        <g
           transform="translate(125,126.8)"
           id="g12"
           style="opacity:1">
          <path
             d="m 0,0 m 0,81.25 c -39.977,0 -72.5,-32.523 -72.5,-72.5 0,0 0,-90 0,-90 0,0 145,0 145,0 0,0 0,90 0,90 0,39.977 -32.523,72.5 -72.5,72.5 z"
             id="path14"
             inkscape:connector-curvature="0"
             style="fill:#ffffff;fill-opacity:1" />
        </g>
      </g>
    </mask>
    <mask
       id="ly_gjZapUGOvl"
       mask-type="alpha">
      <g
         style="opacity:1"
         id="g17">
        <g
           transform="translate(125,126.8)"
           id="g19"
           style="opacity:1">
          <path
             d="m 0,0 m 0,81.25 c -39.977,0 -72.5,-32.523 -72.5,-72.5 0,0 0,-90 0,-90 0,0 145,0 145,0 0,0 0,90 0,90 0,39.977 -32.523,72.5 -72.5,72.5 z"
             id="path21"
             inkscape:connector-curvature="0"
             style="fill:#ffffff;fill-opacity:1" />
        </g>
      </g>
    </mask>
  </defs>
  <g
     clip-path="url(#animationMask_NRNzFwZpSb)"
     id="g23"
     transform="translate(-27.000173,-20.045251)">
    <g
       style="opacity:1"
       id="g25">
      <g
         transform="translate(125,126.8)"
         id="g27"
         style="opacity:1">
        <path
           d="m 0,0 m 0,106.25 c 0,0 0,0 0,0 -53.848,0 -97.5,-43.651 -97.5,-97.499 0,0 0,-115.001 0,-115.001 0,0 195,0 195,0 0,0 0,115.001 0,115.001 0,53.848 -43.652,97.499 -97.5,97.499 z"
           id="path29"
           inkscape:connector-curvature="0"
           style="fill:#ffffff;fill-opacity:1" />
        <path
           stroke-miterlimit="10"
           d="m 0,0 m 0,106.25 c 0,0 0,0 0,0 -53.848,0 -97.5,-43.651 -97.5,-97.499 0,0 0,-115.001 0,-115.001 0,0 195,0 195,0 0,0 0,115.001 0,115.001 0,53.848 -43.652,97.499 -97.5,97.499 z"
           id="path31"
           inkscape:connector-curvature="0"
           style="fill-opacity:0;stroke:#000000;stroke-width:1;stroke-linecap:butt;stroke-linejoin:miter;stroke-miterlimit:10;stroke-opacity:1" />
      </g>
      <g
         transform="translate(57.783,23.974)"
         id="g33"
         style="opacity:1">
        <path
           stroke-miterlimit="10"
           d="m 0,0 m 7.469,1.286 c -2.998,-2.572 -11.271,-0.868 -13.032,-0.508 -0.469,0.096 -1.906,0.508 -1.906,0.508"
           id="path35"
           inkscape:connector-curvature="0"
           style="fill-opacity:0;stroke:#000000;stroke-width:1;stroke-linecap:butt;stroke-linejoin:miter;stroke-miterlimit:10;stroke-opacity:1" />
      </g>
      <g
         transform="translate(57.767,33.556)"
         id="g37"
         style="opacity:1">
        <path
           stroke-miterlimit="10"
           d="m 0,0 m -7.484,8.296 c 1.745,-1.028 4.37,-4.875 6.302,-7.324 2.208,-2.798 5.362,-6.638 8.666,-9.268"
           id="path39"
           inkscape:connector-curvature="0"
           style="fill-opacity:0;stroke:#000000;stroke-width:1;stroke-linecap:butt;stroke-linejoin:miter;stroke-miterlimit:10;stroke-opacity:1" />
      </g>
      <g
         transform="translate(58.614,41.23)"
         id="g41"
         style="opacity:1">
        <path
           stroke-miterlimit="10"
           d="m 0,0 m -6.273,-1.283 c 0,0 -0.332,1.154 1.068,1.804 1.088,0.505 2.804,0.69 4.583,0.719 0,0 0.005,0 0.005,0 2.693,0.043 5.528,-0.269 6.533,-0.363 0.209,-0.019 0.44,-0.109 0.689,-0.256"
           id="path43"
           inkscape:connector-curvature="0"
           style="fill-opacity:0;stroke:#000000;stroke-width:1;stroke-linecap:butt;stroke-linejoin:miter;stroke-miterlimit:10;stroke-opacity:1" />
      </g>
      <g
         transform="translate(72.72,23.974)"
         id="g45"
         style="opacity:1">
        <path
           stroke-miterlimit="10"
           d="m 0,0 m 7.469,1.286 c -2.997,-2.572 -11.272,-0.868 -13.033,-0.508 -0.469,0.096 -1.905,0.508 -1.905,0.508"
           id="path47"
           inkscape:connector-curvature="0"
           style="fill-opacity:0;stroke:#000000;stroke-width:1;stroke-linecap:butt;stroke-linejoin:miter;stroke-miterlimit:10;stroke-opacity:1" />
      </g>
      <g
         transform="translate(72.704,33.556)"
         id="g49"
         style="opacity:1">
        <path
           stroke-miterlimit="10"
           d="m 0,0 m -7.484,8.296 c 1.745,-1.028 4.37,-4.875 6.302,-7.324 2.208,-2.798 5.362,-6.638 8.666,-9.268"
           id="path51"
           inkscape:connector-curvature="0"
           style="fill-opacity:0;stroke:#000000;stroke-width:1;stroke-linecap:butt;stroke-linejoin:miter;stroke-miterlimit:10;stroke-opacity:1" />
      </g>
      <g
         transform="translate(73.552,41.23)"
         id="g53"
         style="opacity:1">
        <path
           stroke-miterlimit="10"
           d="m 0,0 m -6.273,-1.283 c 0,0 -0.332,1.154 1.068,1.804 1.087,0.505 2.804,0.69 4.582,0.719 0,0 0.006,0 0.006,0 2.693,0.043 5.528,-0.269 6.533,-0.363 0.209,-0.019 0.44,-0.109 0.689,-0.256"
           id="path55"
           inkscape:connector-curvature="0"
           style="fill-opacity:0;stroke:#000000;stroke-width:1;stroke-linecap:butt;stroke-linejoin:miter;stroke-miterlimit:10;stroke-opacity:1" />
      </g>
      <g
         transform="translate(87.657,23.974)"
         id="g57"
         style="opacity:1">
        <path
           stroke-miterlimit="10"
           d="m 0,0 m 7.469,1.286 c -2.998,-2.572 -11.271,-0.868 -13.032,-0.508 -0.469,0.096 -1.906,0.508 -1.906,0.508"
           id="path59"
           inkscape:connector-curvature="0"
           style="fill-opacity:0;stroke:#000000;stroke-width:1;stroke-linecap:butt;stroke-linejoin:miter;stroke-miterlimit:10;stroke-opacity:1" />
      </g>
      <g
         transform="translate(87.642,33.556)"
         id="g61"
         style="opacity:1">
        <path
           stroke-miterlimit="10"
           d="m 0,0 m -7.484,8.296 c 1.745,-1.028 4.37,-4.875 6.302,-7.324 2.208,-2.798 5.362,-6.638 8.666,-9.268"
           id="path63"
           inkscape:connector-curvature="0"
           style="fill-opacity:0;stroke:#000000;stroke-width:1;stroke-linecap:butt;stroke-linejoin:miter;stroke-miterlimit:10;stroke-opacity:1" />
      </g>
      <g
         transform="translate(88.489,41.23)"
         id="g65"
         style="opacity:1">
        <path
           stroke-miterlimit="10"
           d="m 0,0 m -6.273,-1.283 c 0,0 -0.332,1.154 1.068,1.804 1.088,0.505 2.805,0.69 4.583,0.719 0,0 0.005,0 0.005,0 2.693,0.043 5.528,-0.269 6.533,-0.363 0.209,-0.019 0.44,-0.109 0.689,-0.256"
           id="path67"
           inkscape:connector-curvature="0"
           style="fill-opacity:0;stroke:#000000;stroke-width:1;stroke-linecap:butt;stroke-linejoin:miter;stroke-miterlimit:10;stroke-opacity:1" />
      </g>
      <g
         transform="translate(102.594,23.974)"
         id="g69"
         style="opacity:1">
        <path
           stroke-miterlimit="10"
           d="m 0,0 m 7.469,1.286 c -2.997,-2.572 -11.272,-0.868 -13.033,-0.508 -0.468,0.096 -1.905,0.508 -1.905,0.508"
           id="path71"
           inkscape:connector-curvature="0"
           style="fill-opacity:0;stroke:#000000;stroke-width:1;stroke-linecap:butt;stroke-linejoin:miter;stroke-miterlimit:10;stroke-opacity:1" />
      </g>
      <g
         transform="translate(102.579,33.556)"
         id="g73"
         style="opacity:1">
        <path
           stroke-miterlimit="10"
           d="m 0,0 m -7.484,8.296 c 1.745,-1.028 4.371,-4.875 6.302,-7.324 2.208,-2.798 5.362,-6.638 8.666,-9.268"
           id="path75"
           inkscape:connector-curvature="0"
           style="fill-opacity:0;stroke:#000000;stroke-width:1;stroke-linecap:butt;stroke-linejoin:miter;stroke-miterlimit:10;stroke-opacity:1" />
      </g>
      <g
         transform="translate(103.426,41.23)"
         id="g77"
         style="opacity:1">
        <path
           stroke-miterlimit="10"
           d="m 0,0 m -6.273,-1.283 c 0,0 -0.332,1.154 1.068,1.804 1.088,0.505 2.804,0.69 4.582,0.719 0,0 0.006,0 0.006,0 2.693,0.043 5.528,-0.269 6.533,-0.363 0.209,-0.019 0.44,-0.109 0.689,-0.256"
           id="path79"
           inkscape:connector-curvature="0"
           style="fill-opacity:0;stroke:#000000;stroke-width:1;stroke-linecap:butt;stroke-linejoin:miter;stroke-miterlimit:10;stroke-opacity:1" />
      </g>
      <g
         transform="translate(117.532,23.974)"
         id="g81"
         style="opacity:1">
        <path
           stroke-miterlimit="10"
           d="m 0,0 m 7.469,1.286 c -2.997,-2.572 -11.271,-0.868 -13.032,-0.508 -0.469,0.096 -1.906,0.508 -1.906,0.508"
           id="path83"
           inkscape:connector-curvature="0"
           style="fill-opacity:0;stroke:#000000;stroke-width:1;stroke-linecap:butt;stroke-linejoin:miter;stroke-miterlimit:10;stroke-opacity:1" />
      </g>
      <g
         transform="translate(117.516,33.556)"
         id="g85"
         style="opacity:1">
        <path
           stroke-miterlimit="10"
           d="m 0,0 m -7.484,8.296 c 1.745,-1.028 4.37,-4.875 6.302,-7.324 2.208,-2.798 5.362,-6.638 8.666,-9.268"
           id="path87"
           inkscape:connector-curvature="0"
           style="fill-opacity:0;stroke:#000000;stroke-width:1;stroke-linecap:butt;stroke-linejoin:miter;stroke-miterlimit:10;stroke-opacity:1" />
      </g>
      <g
         transform="translate(118.364,41.23)"
         id="g89"
         style="opacity:1">
        <path
           stroke-miterlimit="10"
           d="m 0,0 m -6.273,-1.283 c 0,0 -0.333,1.154 1.068,1.804 1.087,0.505 2.804,0.69 4.582,0.719 0,0 0.005,0 0.005,0 2.694,0.043 5.528,-0.269 6.533,-0.363 0.209,-0.019 0.44,-0.109 0.69,-0.256"
           id="path91"
           inkscape:connector-curvature="0"
           style="fill-opacity:0;stroke:#000000;stroke-width:1;stroke-linecap:butt;stroke-linejoin:miter;stroke-miterlimit:10;stroke-opacity:1" />
      </g>
      <g
         transform="translate(132.469,23.974)"
         id="g93"
         style="opacity:1">
        <path
           stroke-miterlimit="10"
           d="m 0,0 m 7.469,1.286 c -2.997,-2.572 -11.272,-0.868 -13.033,-0.508 -0.469,0.096 -1.905,0.508 -1.905,0.508"
           id="path95"
           inkscape:connector-curvature="0"
           style="fill-opacity:0;stroke:#000000;stroke-width:1;stroke-linecap:butt;stroke-linejoin:miter;stroke-miterlimit:10;stroke-opacity:1" />
      </g>
      <g
         transform="translate(132.453,33.556)"
         id="g97"
         style="opacity:1">
        <path
           stroke-miterlimit="10"
           d="m 0,0 m -7.484,8.296 c 1.745,-1.028 4.371,-4.875 6.303,-7.324 2.207,-2.798 5.362,-6.638 8.665,-9.268"
           id="path99"
           inkscape:connector-curvature="0"
           style="fill-opacity:0;stroke:#000000;stroke-width:1;stroke-linecap:butt;stroke-linejoin:miter;stroke-miterlimit:10;stroke-opacity:1" />
      </g>
      <g
         transform="translate(133.301,41.23)"
         id="g101"
         style="opacity:1">
        <path
           stroke-miterlimit="10"
           d="m 0,0 m -6.273,-1.283 c 0,0 -0.333,1.154 1.068,1.804 1.087,0.505 2.804,0.69 4.582,0.719 0,0 0.005,0 0.005,0 2.694,0.043 5.529,-0.269 6.533,-0.363 0.209,-0.019 0.441,-0.109 0.69,-0.256"
           id="path103"
           inkscape:connector-curvature="0"
           style="fill-opacity:0;stroke:#000000;stroke-width:1;stroke-linecap:butt;stroke-linejoin:miter;stroke-miterlimit:10;stroke-opacity:1" />
      </g>
      <g
         transform="translate(147.406,23.974)"
         id="g105"
         style="opacity:1">
        <path
           stroke-miterlimit="10"
           d="m 0,0 m 7.469,1.286 c -2.997,-2.572 -11.271,-0.868 -13.032,-0.508 -0.469,0.096 -1.906,0.508 -1.906,0.508"
           id="path107"
           inkscape:connector-curvature="0"
           style="fill-opacity:0;stroke:#000000;stroke-width:1;stroke-linecap:butt;stroke-linejoin:miter;stroke-miterlimit:10;stroke-opacity:1" />
      </g>
      <g
         transform="translate(147.391,33.556)"
         id="g109"
         style="opacity:1">
        <path
           stroke-miterlimit="10"
           d="m 0,0 m -7.484,8.296 c 1.745,-1.028 4.37,-4.875 6.302,-7.324 2.208,-2.798 5.362,-6.638 8.666,-9.268"
           id="path111"
           inkscape:connector-curvature="0"
           style="fill-opacity:0;stroke:#000000;stroke-width:1;stroke-linecap:butt;stroke-linejoin:miter;stroke-miterlimit:10;stroke-opacity:1" />
      </g>
      <g
         transform="translate(148.238,41.23)"
         id="g113"
         style="opacity:1">
        <path
           stroke-miterlimit="10"
           d="m 0,0 m -6.273,-1.283 c 0,0 -0.333,1.154 1.067,1.804 1.088,0.505 2.804,0.69 4.583,0.719 0,0 0.005,0 0.005,0 2.694,0.043 5.529,-0.269 6.533,-0.363 0.209,-0.019 0.441,-0.109 0.69,-0.256"
           id="path115"
           inkscape:connector-curvature="0"
           style="fill-opacity:0;stroke:#000000;stroke-width:1;stroke-linecap:butt;stroke-linejoin:miter;stroke-miterlimit:10;stroke-opacity:1" />
      </g>
      <g
         transform="translate(162.344,23.974)"
         id="g117"
         style="opacity:1">
        <path
           stroke-miterlimit="10"
           d="m 0,0 m 7.469,1.286 c -2.997,-2.572 -11.271,-0.868 -13.032,-0.508 -0.469,0.096 -1.906,0.508 -1.906,0.508"
           id="path119"
           inkscape:connector-curvature="0"
           style="fill-opacity:0;stroke:#000000;stroke-width:1;stroke-linecap:butt;stroke-linejoin:miter;stroke-miterlimit:10;stroke-opacity:1" />
      </g>
      <g
         transform="translate(162.328,33.556)"
         id="g121"
         style="opacity:1">
        <path
           stroke-miterlimit="10"
           d="m 0,0 m -7.484,8.296 c 1.744,-1.028 4.37,-4.875 6.302,-7.324 2.208,-2.798 5.362,-6.638 8.666,-9.268"
           id="path123"
           inkscape:connector-curvature="0"
           style="fill-opacity:0;stroke:#000000;stroke-width:1;stroke-linecap:butt;stroke-linejoin:miter;stroke-miterlimit:10;stroke-opacity:1" />
      </g>
      <g
         transform="translate(163.176,41.23)"
         id="g125"
         style="opacity:1">
        <path
           stroke-miterlimit="10"
           d="m 0,0 m -6.273,-1.283 c 0,0 -0.333,1.154 1.067,1.804 1.087,0.505 2.804,0.69 4.582,0.719 0,0 0.006,0 0.006,0 2.695,0.043 5.529,-0.269 6.533,-0.363 0.209,-0.019 0.44,-0.109 0.69,-0.256"
           id="path127"
           inkscape:connector-curvature="0"
           style="fill-opacity:0;stroke:#000000;stroke-width:1;stroke-linecap:butt;stroke-linejoin:miter;stroke-miterlimit:10;stroke-opacity:1" />
      </g>
      <g
         transform="translate(177.281,23.974)"
         id="g129"
         style="opacity:1">
        <path
           stroke-miterlimit="10"
           d="m 0,0 m 7.469,1.286 c -2.998,-2.572 -11.271,-0.868 -13.032,-0.508 -0.469,0.096 -1.906,0.508 -1.906,0.508"
           id="path131"
           inkscape:connector-curvature="0"
           style="fill-opacity:0;stroke:#000000;stroke-width:1;stroke-linecap:butt;stroke-linejoin:miter;stroke-miterlimit:10;stroke-opacity:1" />
      </g>
      <g
         transform="translate(177.266,33.556)"
         id="g133"
         style="opacity:1">
        <path
           stroke-miterlimit="10"
           d="m 0,0 m -7.484,8.296 c 1.744,-1.028 4.37,-4.875 6.302,-7.324 2.208,-2.798 5.362,-6.638 8.666,-9.268"
           id="path135"
           inkscape:connector-curvature="0"
           style="fill-opacity:0;stroke:#000000;stroke-width:1;stroke-linecap:butt;stroke-linejoin:miter;stroke-miterlimit:10;stroke-opacity:1" />
      </g>
      <g
         transform="translate(178.113,41.23)"
         id="g137"
         style="opacity:1">
        <path
           stroke-miterlimit="10"
           d="m 0,0 m -6.273,-1.283 c 0,0 -0.332,1.154 1.068,1.804 1.087,0.505 2.804,0.69 4.582,0.719 0,0 0.005,0 0.005,0 2.694,0.043 5.529,-0.269 6.534,-0.363 0.208,-0.019 0.44,-0.109 0.689,-0.256"
           id="path139"
           inkscape:connector-curvature="0"
           style="fill-opacity:0;stroke:#000000;stroke-width:1;stroke-linecap:butt;stroke-linejoin:miter;stroke-miterlimit:10;stroke-opacity:1" />
      </g>
      <g
         transform="translate(192.218,23.974)"
         id="g141"
         style="opacity:1">
        <path
           stroke-miterlimit="10"
           d="m 0,0 m 7.469,1.286 c -2.997,-2.572 -11.272,-0.868 -13.033,-0.508 -0.469,0.096 -1.905,0.508 -1.905,0.508"
           id="path143"
           inkscape:connector-curvature="0"
           style="fill-opacity:0;stroke:#000000;stroke-width:1;stroke-linecap:butt;stroke-linejoin:miter;stroke-miterlimit:10;stroke-opacity:1" />
      </g>
      <g
         transform="translate(192.202,33.556)"
         id="g145"
         style="opacity:1">
        <path
           stroke-miterlimit="10"
           d="m 0,0 m -7.484,8.296 c 1.745,-1.028 4.37,-4.875 6.303,-7.324 2.207,-2.798 5.361,-6.638 8.665,-9.268"
           id="path147"
           inkscape:connector-curvature="0"
           style="fill-opacity:0;stroke:#000000;stroke-width:1;stroke-linecap:butt;stroke-linejoin:miter;stroke-miterlimit:10;stroke-opacity:1" />
      </g>
      <g
         transform="translate(193.05,41.23)"
         id="g149"
         style="opacity:1">
        <path
           stroke-miterlimit="10"
           d="m 0,0 m -6.274,-1.283 c 0,0 -0.331,1.154 1.069,1.804 1.087,0.505 2.804,0.69 4.582,0.719 0,0 0.005,0 0.005,0 2.694,0.043 5.529,-0.269 6.533,-0.363 0.209,-0.019 0.441,-0.109 0.69,-0.256"
           id="path151"
           inkscape:connector-curvature="0"
           style="fill-opacity:0;stroke:#000000;stroke-width:1;stroke-linecap:butt;stroke-linejoin:miter;stroke-miterlimit:10;stroke-opacity:1" />
      </g>
      <g
         transform="translate(219.077,51.146)"
         id="g153"
         style="opacity:1">
        <path
           stroke-miterlimit="10"
           d="m 0,0 m -1.286,7.782 c 2.571,-3.123 0.867,-11.744 0.507,-13.579 -0.096,-0.488 -0.507,-1.985 -0.507,-1.985"
           id="path155"
           inkscape:connector-curvature="0"
           style="fill-opacity:0;stroke:#000000;stroke-width:1;stroke-linecap:butt;stroke-linejoin:miter;stroke-miterlimit:10;stroke-opacity:1" />
      </g>
      <g
         transform="translate(209.495,51.13)"
         id="g157"
         style="opacity:1">
        <path
           stroke-miterlimit="10"
           d="m 0,0 m -8.296,-7.799 c 1.028,1.818 4.875,4.555 7.324,6.567 2.799,2.301 6.638,5.588 9.268,9.031"
           id="path159"
           inkscape:connector-curvature="0"
           style="fill-opacity:0;stroke:#000000;stroke-width:1;stroke-linecap:butt;stroke-linejoin:miter;stroke-miterlimit:10;stroke-opacity:1" />
      </g>
      <g
         transform="translate(201.82,52.013)"
         id="g161"
         style="opacity:1">
        <path
           stroke-miterlimit="10"
           d="m 0,0 m 1.283,-6.537 c 0,0 -1.153,-0.346 -1.804,1.113 -0.505,1.133 -0.69,2.922 -0.718,4.775 0,0 0,0.005 0,0.005 -0.044,2.807 0.268,5.761 0.362,6.809 0.019,0.217 0.109,0.458 0.256,0.718"
           id="path163"
           inkscape:connector-curvature="0"
           style="fill-opacity:0;stroke:#000000;stroke-width:1;stroke-linecap:butt;stroke-linejoin:miter;stroke-miterlimit:10;stroke-opacity:1" />
      </g>
      <g
         transform="translate(219.077,66.71)"
         id="g165"
         style="opacity:1">
        <path
           stroke-miterlimit="10"
           d="m 0,0 m -1.286,7.782 c 2.571,-3.123 0.867,-11.744 0.507,-13.579 -0.096,-0.488 -0.507,-1.985 -0.507,-1.985"
           id="path167"
           inkscape:connector-curvature="0"
           style="fill-opacity:0;stroke:#000000;stroke-width:1;stroke-linecap:butt;stroke-linejoin:miter;stroke-miterlimit:10;stroke-opacity:1" />
      </g>
      <g
         transform="translate(209.495,66.694)"
         id="g169"
         style="opacity:1">
        <path
           stroke-miterlimit="10"
           d="m 0,0 m -8.296,-7.799 c 1.028,1.818 4.875,4.555 7.324,6.567 2.799,2.301 6.638,5.588 9.268,9.031"
           id="path171"
           inkscape:connector-curvature="0"
           style="fill-opacity:0;stroke:#000000;stroke-width:1;stroke-linecap:butt;stroke-linejoin:miter;stroke-miterlimit:10;stroke-opacity:1" />
      </g>
      <g
         transform="translate(201.82,67.576)"
         id="g173"
         style="opacity:1">
        <path
           stroke-miterlimit="10"
           d="m 0,0 m 1.283,-6.537 c 0,0 -1.153,-0.346 -1.804,1.113 -0.505,1.133 -0.69,2.922 -0.718,4.775 0,0 0,0.005 0,0.005 -0.044,2.807 0.268,5.761 0.362,6.809 0.019,0.217 0.109,0.458 0.256,0.718"
           id="path175"
           inkscape:connector-curvature="0"
           style="fill-opacity:0;stroke:#000000;stroke-width:1;stroke-linecap:butt;stroke-linejoin:miter;stroke-miterlimit:10;stroke-opacity:1" />
      </g>
      <g
         transform="translate(219.077,82.274)"
         id="g177"
         style="opacity:1">
        <path
           stroke-miterlimit="10"
           d="m 0,0 m -1.286,7.782 c 2.571,-3.123 0.867,-11.744 0.507,-13.579 -0.096,-0.488 -0.507,-1.985 -0.507,-1.985"
           id="path179"
           inkscape:connector-curvature="0"
           style="fill-opacity:0;stroke:#000000;stroke-width:1;stroke-linecap:butt;stroke-linejoin:miter;stroke-miterlimit:10;stroke-opacity:1" />
      </g>
      <g
         transform="translate(209.495,82.257)"
         id="g181"
         style="opacity:1">
        <path
           stroke-miterlimit="10"
           d="m 0,0 m -8.296,-7.799 c 1.028,1.818 4.875,4.555 7.324,6.567 2.799,2.301 6.638,5.588 9.268,9.031"
           id="path183"
           inkscape:connector-curvature="0"
           style="fill-opacity:0;stroke:#000000;stroke-width:1;stroke-linecap:butt;stroke-linejoin:miter;stroke-miterlimit:10;stroke-opacity:1" />
      </g>
      <g
         transform="translate(201.82,83.141)"
         id="g185"
         style="opacity:1">
        <path
           stroke-miterlimit="10"
           d="m 0,0 m 1.283,-6.537 c 0,0 -1.153,-0.346 -1.804,1.113 -0.505,1.133 -0.69,2.922 -0.718,4.775 0,0 0,0.005 0,0.005 -0.044,2.807 0.268,5.761 0.362,6.809 0.019,0.217 0.109,0.458 0.256,0.718"
           id="path187"
           inkscape:connector-curvature="0"
           style="fill-opacity:0;stroke:#000000;stroke-width:1;stroke-linecap:butt;stroke-linejoin:miter;stroke-miterlimit:10;stroke-opacity:1" />
      </g>
      <g
         transform="translate(219.077,97.838)"
         id="g189"
         style="opacity:1">
        <path
           stroke-miterlimit="10"
           d="m 0,0 m -1.286,7.782 c 2.571,-3.123 0.867,-11.744 0.507,-13.579 -0.096,-0.488 -0.507,-1.985 -0.507,-1.985"
           id="path191"
           inkscape:connector-curvature="0"
           style="fill-opacity:0;stroke:#000000;stroke-width:1;stroke-linecap:butt;stroke-linejoin:miter;stroke-miterlimit:10;stroke-opacity:1" />
      </g>
      <g
         transform="translate(209.495,97.821)"
         id="g193"
         style="opacity:1">
        <path
           stroke-miterlimit="10"
           d="m 0,0 m -8.296,-7.799 c 1.028,1.818 4.875,4.555 7.324,6.567 2.799,2.301 6.638,5.588 9.268,9.031"
           id="path195"
           inkscape:connector-curvature="0"
           style="fill-opacity:0;stroke:#000000;stroke-width:1;stroke-linecap:butt;stroke-linejoin:miter;stroke-miterlimit:10;stroke-opacity:1" />
      </g>
      <g
         transform="translate(201.82,98.705)"
         id="g197"
         style="opacity:1">
        <path
           stroke-miterlimit="10"
           d="m 0,0 m 1.283,-6.537 c 0,0 -1.153,-0.346 -1.804,1.113 -0.505,1.133 -0.69,2.922 -0.718,4.775 0,0 0,0.005 0,0.005 -0.044,2.807 0.268,5.761 0.362,6.809 0.019,0.217 0.109,0.458 0.256,0.718"
           id="path199"
           inkscape:connector-curvature="0"
           style="fill-opacity:0;stroke:#000000;stroke-width:1;stroke-linecap:butt;stroke-linejoin:miter;stroke-miterlimit:10;stroke-opacity:1" />
      </g>
      <g
         transform="translate(219.077,113.402)"
         id="g201"
         style="opacity:1">
        <path
           stroke-miterlimit="10"
           d="m 0,0 m -1.286,7.782 c 2.571,-3.123 0.867,-11.744 0.507,-13.579 -0.096,-0.488 -0.507,-1.985 -0.507,-1.985"
           id="path203"
           inkscape:connector-curvature="0"
           style="fill-opacity:0;stroke:#000000;stroke-width:1;stroke-linecap:butt;stroke-linejoin:miter;stroke-miterlimit:10;stroke-opacity:1" />
      </g>
      <g
         transform="translate(209.495,113.385)"
         id="g205"
         style="opacity:1">
        <path
           stroke-miterlimit="10"
           d="m 0,0 m -8.296,-7.799 c 1.028,1.818 4.875,4.554 7.324,6.567 2.799,2.301 6.638,5.588 9.268,9.031"
           id="path207"
           inkscape:connector-curvature="0"
           style="fill-opacity:0;stroke:#000000;stroke-width:1;stroke-linecap:butt;stroke-linejoin:miter;stroke-miterlimit:10;stroke-opacity:1" />
      </g>
      <g
         transform="translate(201.82,114.268)"
         id="g209"
         style="opacity:1">
        <path
           stroke-miterlimit="10"
           d="m 0,0 m 1.283,-6.537 c 0,0 -1.153,-0.346 -1.804,1.113 -0.505,1.133 -0.69,2.922 -0.718,4.775 0,0 0,0.005 0,0.005 -0.044,2.807 0.268,5.761 0.362,6.809 0.019,0.217 0.109,0.458 0.256,0.718"
           id="path211"
           inkscape:connector-curvature="0"
           style="fill-opacity:0;stroke:#000000;stroke-width:1;stroke-linecap:butt;stroke-linejoin:miter;stroke-miterlimit:10;stroke-opacity:1" />
      </g>
      <g
         transform="translate(218.489,129.02)"
         id="g213"
         style="opacity:1">
        <path
           stroke-miterlimit="10"
           d="m 0,0 m -0.729,7.836 c 0.329,-0.412 0.604,-0.962 0.806,-1.513 0.199,-0.538 0.34,-1.138 0.439,-1.776 0.196,-1.276 0.213,-2.704 0.138,-4.092 -0.15,-2.774 -0.664,-5.388 -0.845,-6.306 -0.096,-0.488 -0.508,-1.985 -0.508,-1.985"
           id="path215"
           inkscape:connector-curvature="0"
           style="fill-opacity:0;stroke:#000000;stroke-width:1;stroke-linecap:butt;stroke-linejoin:miter;stroke-miterlimit:10;stroke-opacity:1" />
      </g>
      <g
         transform="translate(209.48,129.003)"
         id="g217"
         style="opacity:1">
        <path
           stroke-miterlimit="10"
           d="m 0,0 m -8.281,-7.852 c 1.028,1.818 4.875,4.554 7.324,6.567 1.4,1.15 3.059,2.548 4.697,4.087 0.819,0.769 1.633,1.575 2.407,2.403 0.386,0.414 0.762,0.834 1.125,1.258 0.355,0.443 0.689,0.919 1.008,1.39"
           id="path219"
           inkscape:connector-curvature="0"
           style="fill-opacity:0;stroke:#000000;stroke-width:1;stroke-linecap:butt;stroke-linejoin:miter;stroke-miterlimit:10;stroke-opacity:1" />
      </g>
      <g
         transform="translate(201.817,129.772)"
         id="g221"
         style="opacity:1">
        <path
           stroke-miterlimit="10"
           d="m 0,0 m 1.285,-6.477 c 0,0 -1.153,-0.345 -1.804,1.114 -0.505,1.133 -0.689,2.92 -0.717,4.774 0,0 0,0.006 0,0.006 -0.049,2.786 0.28,5.806 0.351,6.759 0.014,0.195 0.098,0.412 0.238,0.647"
           id="path223"
           inkscape:connector-curvature="0"
           style="fill-opacity:0;stroke:#000000;stroke-width:1;stroke-linecap:butt;stroke-linejoin:miter;stroke-miterlimit:10;stroke-opacity:1" />
      </g>
      <g
         transform="translate(217.351,145.292)"
         id="g225"
         style="opacity:1">
        <path
           stroke-miterlimit="10"
           d="m 0,0 m -1.36,8.436 c 0.782,-0.713 1.372,-1.868 1.812,-3.228 0.438,-1.359 0.613,-2.938 0.745,-4.469 0.163,-3.077 -0.15,-5.984 -0.336,-6.992 -0.081,-0.541 -0.452,-2.183 -0.452,-2.183"
           id="path227"
           inkscape:connector-curvature="0"
           style="fill-opacity:0;stroke:#000000;stroke-width:1;stroke-linecap:butt;stroke-linejoin:miter;stroke-miterlimit:10;stroke-opacity:1" />
      </g>
      <g
         transform="translate(208.581,145.161)"
         id="g229"
         style="opacity:1">
        <path
           stroke-miterlimit="10"
           d="m 0,0 m -7.41,-8.566 c 0.491,0.821 1.686,1.882 3.054,3.041 1.31,1.15 2.794,2.403 3.938,3.502 2.597,2.481 5.968,6.357 7.828,10.59"
           id="path231"
           inkscape:connector-curvature="0"
           style="fill-opacity:0;stroke:#000000;stroke-width:1;stroke-linecap:butt;stroke-linejoin:miter;stroke-miterlimit:10;stroke-opacity:1" />
      </g>
      <g
         transform="translate(201.298,144.348)"
         id="g233"
         style="opacity:1">
        <path
           stroke-miterlimit="10"
           d="m 0,0 m 1.726,-5.755 c 0,0 -1.145,-0.35 -1.829,0.932 -0.596,0.987 -0.865,2.559 -1.064,4.194 0,0 -10e-4,0.005 -10e-4,0.005 -0.188,1.233 -0.261,2.514 -0.34,3.601 -0.111,1.081 -0.167,1.978 -0.204,2.448 -0.014,0.194 0.036,0.423 0.139,0.68"
           id="path235"
           inkscape:connector-curvature="0"
           style="fill-opacity:0;stroke:#000000;stroke-width:1;stroke-linecap:butt;stroke-linejoin:miter;stroke-miterlimit:10;stroke-opacity:1" />
      </g>
      <g
         transform="translate(213.587,161.861)"
         id="g237"
         style="opacity:1">
        <path
           stroke-miterlimit="10"
           d="m 0,0 m -2.45,8.134 c 0.896,-0.559 1.747,-1.563 2.387,-2.835 0.628,-1.274 1.192,-2.761 1.555,-4.258 0.347,-1.502 0.611,-2.977 0.756,-4.21 0.115,-1.24 0.164,-2.224 0.19,-2.735 0.013,-0.273 0.011,-0.83 0.006,-1.318 0.002,-0.487 -0.04,-0.912 -0.04,-0.912"
           id="path239"
           inkscape:connector-curvature="0"
           style="fill-opacity:0;stroke:#000000;stroke-width:1;stroke-linecap:butt;stroke-linejoin:miter;stroke-miterlimit:10;stroke-opacity:1" />
      </g>
      <g
         transform="translate(205.431,160.224)"
         id="g241"
         style="opacity:1">
        <path
           stroke-miterlimit="10"
           d="m 0,0 m -5.705,-9.771 c 0.367,0.901 1.29,2.147 2.415,3.533 1.137,1.385 2.351,2.883 3.25,4.165 1.04,1.466 2.259,3.301 3.272,5.327 0.521,1.017 1.017,2.088 1.459,3.191 0.404,1.089 0.75,2.207 1.015,3.326"
           id="path243"
           inkscape:connector-curvature="0"
           style="fill-opacity:0;stroke:#000000;stroke-width:1;stroke-linecap:butt;stroke-linejoin:miter;stroke-miterlimit:10;stroke-opacity:1" />
      </g>
      <g
         transform="translate(198.432,157.993)"
         id="g245"
         style="opacity:1">
        <path
           stroke-miterlimit="10"
           d="m 0,0 m 2.738,-5.245 c 0,0 -1.058,-0.552 -1.984,0.574 -0.687,0.882 -1.321,2.354 -1.796,3.929 0,0 -10e-4,0.005 -10e-4,0.005 -0.767,2.367 -1.355,4.946 -1.642,5.842 -0.053,0.187 -0.049,0.421 0.002,0.692"
           id="path247"
           inkscape:connector-curvature="0"
           style="fill-opacity:0;stroke:#000000;stroke-width:1;stroke-linecap:butt;stroke-linejoin:miter;stroke-miterlimit:10;stroke-opacity:1" />
      </g>
      <g
         transform="translate(207.269,177.545)"
         id="g249"
         style="opacity:1">
        <path
           stroke-miterlimit="10"
           d="m 0,0 m -3.867,7.551 c 1.011,-0.367 1.996,-1.219 2.853,-2.354 0.875,-1.124 1.696,-2.483 2.306,-3.898 1.326,-2.784 1.96,-5.664 2.226,-6.641 0.144,-0.524 0.349,-2.208 0.349,-2.208"
           id="path251"
           inkscape:connector-curvature="0"
           style="fill-opacity:0;stroke:#000000;stroke-width:1;stroke-linecap:butt;stroke-linejoin:miter;stroke-miterlimit:10;stroke-opacity:1" />
      </g>
      <g
         transform="translate(199.575,174.443)"
         id="g253"
         style="opacity:1">
        <path
           stroke-miterlimit="10"
           d="m 0,0 m -3.826,-10.653 c 0.189,0.952 0.931,2.372 1.739,3.922 0.813,1.547 1.817,3.283 2.438,4.695 1.508,3.239 3.302,8.099 3.475,12.689"
           id="path255"
           inkscape:connector-curvature="0"
           style="fill-opacity:0;stroke:#000000;stroke-width:1;stroke-linecap:butt;stroke-linejoin:miter;stroke-miterlimit:10;stroke-opacity:1" />
      </g>
      <g
         transform="translate(193.089,170.888)"
         id="g257"
         style="opacity:1">
        <path
           stroke-miterlimit="10"
           d="m 0,0 m 3.684,-4.566 c 0,0 -0.935,-0.733 -2.071,0.196 -0.441,0.36 -0.866,0.881 -1.267,1.499 -0.401,0.618 -0.846,1.301 -1.226,2.032 0,0 -0.002,0.003 -0.002,0.003 -0.299,0.548 -0.562,1.124 -0.837,1.67 -0.285,0.541 -0.548,1.073 -0.783,1.565 -0.464,0.987 -0.823,1.814 -1.051,2.223 -0.089,0.174 -0.129,0.403 -0.131,0.677"
           id="path259"
           inkscape:connector-curvature="0"
           style="fill-opacity:0;stroke:#000000;stroke-width:1;stroke-linecap:butt;stroke-linejoin:miter;stroke-miterlimit:10;stroke-opacity:1" />
      </g>
      <g
         transform="translate(198.233,191.816)"
         id="g261"
         style="opacity:1">
        <path
           stroke-miterlimit="10"
           d="m 0,0 m -5.169,6.72 c 1.075,-0.164 2.146,-0.869 3.225,-1.803 1.091,-0.922 2.089,-2.153 2.972,-3.412 0.91,-1.239 1.638,-2.554 2.207,-3.657 0.571,-1.103 1.001,-1.981 1.184,-2.464 0.213,-0.506 0.749,-2.104 0.749,-2.104"
           id="path263"
           inkscape:connector-curvature="0"
           style="fill-opacity:0;stroke:#000000;stroke-width:1;stroke-linecap:butt;stroke-linejoin:miter;stroke-miterlimit:10;stroke-opacity:1" />
      </g>
      <g
         transform="translate(191.388,187.362)"
         id="g265"
         style="opacity:1">
        <path
           stroke-miterlimit="10"
           d="m 0,0 m -1.982,-11.174 c -0.018,0.951 0.488,2.509 1.001,4.181 0.521,1.673 1.138,3.522 1.544,5.063 0.428,1.729 0.868,3.848 1.144,6.147 0.214,2.241 0.294,4.696 -0.03,6.957"
           id="path267"
           inkscape:connector-curvature="0"
           style="fill-opacity:0;stroke:#000000;stroke-width:1;stroke-linecap:butt;stroke-linejoin:miter;stroke-miterlimit:10;stroke-opacity:1" />
      </g>
      <g
         transform="translate(185.43,182.792)"
         id="g269"
         style="opacity:1">
        <path
           stroke-miterlimit="10"
           d="m 0,0 m 4.519,-3.926 c 0,0 -0.197,-0.228 -0.552,-0.359 -0.353,-0.132 -0.858,-0.165 -1.513,0.179 -0.503,0.271 -1.023,0.703 -1.539,1.234 -0.502,0.539 -1.031,1.154 -1.564,1.785 0,0 -0.003,0.003 -0.003,0.003 -1.531,1.969 -3.079,4.11 -3.61,4.896 -0.12,0.155 -0.203,0.37 -0.257,0.638"
           id="path271"
           inkscape:connector-curvature="0"
           style="fill-opacity:0;stroke:#000000;stroke-width:1;stroke-linecap:butt;stroke-linejoin:miter;stroke-miterlimit:10;stroke-opacity:1" />
      </g>
      <g
         transform="translate(186.769,204.215)"
         id="g273"
         style="opacity:1">
        <path
           stroke-miterlimit="10"
           d="m 0,0 m -6.296,5.678 c 2.112,-0.016 4.851,-1.849 7.033,-4.018 2.189,-2.167 3.885,-4.548 4.428,-5.418 0.303,-0.455 1.13,-1.92 1.13,-1.92"
           id="path275"
           inkscape:connector-curvature="0"
           style="fill-opacity:0;stroke:#000000;stroke-width:1;stroke-linecap:butt;stroke-linejoin:miter;stroke-miterlimit:10;stroke-opacity:1" />
      </g>
      <g
         transform="translate(181.179,198.567)"
         id="g277"
         style="opacity:1">
        <path
           stroke-miterlimit="10"
           d="m 0,0 m -0.268,-11.325 c -0.186,0.937 -0.011,2.521 0.229,4.296 0.209,1.74 0.468,3.658 0.585,5.242 0.152,1.824 0.159,3.94 0.017,6.252 -0.147,2.302 -0.587,4.637 -1.268,6.86"
           id="path279"
           inkscape:connector-curvature="0"
           style="fill-opacity:0;stroke:#000000;stroke-width:1;stroke-linecap:butt;stroke-linejoin:miter;stroke-miterlimit:10;stroke-opacity:1" />
      </g>
      <g
         transform="translate(175.753,192.762)"
         id="g281"
         style="opacity:1">
        <path
           stroke-miterlimit="10"
           d="m 0,0 m 5.193,-2.8 c 0,0 -0.617,-1.026 -1.981,-0.532 -1.102,0.339 -2.354,1.328 -3.601,2.407 0,0 -0.004,0.003 -0.004,0.003 -0.968,0.789 -1.864,1.713 -2.668,2.449 -0.803,0.736 -1.442,1.369 -1.782,1.697 -0.141,0.136 -0.256,0.341 -0.351,0.603"
           id="path283"
           inkscape:connector-curvature="0"
           style="fill-opacity:0;stroke:#000000;stroke-width:1;stroke-linecap:butt;stroke-linejoin:miter;stroke-miterlimit:10;stroke-opacity:1" />
      </g>
      <g
         transform="translate(173.242,214.42)"
         id="g285"
         style="opacity:1">
        <path
           stroke-miterlimit="10"
           d="m 0,0 m -7.231,4.339 c 1.044,0.188 2.32,-0.044 3.668,-0.519 1.323,-0.518 2.705,-1.3 3.997,-2.132 1.263,-0.88 2.423,-1.834 3.362,-2.639 0.929,-0.822 1.604,-1.548 1.966,-1.906 0.384,-0.39 1.47,-1.67 1.47,-1.67"
           id="path287"
           inkscape:connector-curvature="0"
           style="fill-opacity:0;stroke:#000000;stroke-width:1;stroke-linecap:butt;stroke-linejoin:miter;stroke-miterlimit:10;stroke-opacity:1" />
      </g>
      <g
         transform="translate(168.285,207.674)"
         id="g289"
         style="opacity:1">
        <path
           stroke-miterlimit="10"
           d="m 0,0 m 2.275,-11.086 c -0.688,1.748 -0.526,6.395 -0.936,9.509 -0.103,0.891 -0.222,1.899 -0.407,2.931 -0.188,1.026 -0.42,2.11 -0.707,3.22 -0.556,2.25 -1.41,4.472 -2.5,6.511"
           id="path291"
           inkscape:connector-curvature="0"
           style="fill-opacity:0;stroke:#000000;stroke-width:1;stroke-linecap:butt;stroke-linejoin:miter;stroke-miterlimit:10;stroke-opacity:1" />
      </g>
      <g
         transform="translate(164.387,201.006)"
         id="g293"
         style="opacity:1">
        <path
           stroke-miterlimit="10"
           d="m 0,0 m 5.706,-1.751 c 0,0 -0.42,-1.118 -1.858,-0.891 -1.101,0.199 -2.573,0.85 -3.962,1.735 0,0 -0.004,0.002 -0.004,0.002 -1.086,0.614 -2.167,1.3 -3.066,1.923 -0.917,0.589 -1.672,1.075 -2.065,1.329 -0.164,0.106 -0.316,0.284 -0.457,0.522"
           id="path295"
           inkscape:connector-curvature="0"
           style="fill-opacity:0;stroke:#000000;stroke-width:1;stroke-linecap:butt;stroke-linejoin:miter;stroke-miterlimit:10;stroke-opacity:1" />
      </g>
      <g
         transform="translate(158.089,222.206)"
         id="g297"
         style="opacity:1">
        <path
           stroke-miterlimit="10"
           d="m 0,0 m -7.923,2.64 c 1.997,0.806 5.198,0.013 8.023,-1.209 1.401,-0.644 2.74,-1.313 3.794,-1.972 1.055,-0.662 1.866,-1.221 2.287,-1.51 0.223,-0.156 0.666,-0.495 1.048,-0.797 0.372,-0.322 0.693,-0.598 0.693,-0.598"
           id="path299"
           inkscape:connector-curvature="0"
           style="fill-opacity:0;stroke:#000000;stroke-width:1;stroke-linecap:butt;stroke-linejoin:miter;stroke-miterlimit:10;stroke-opacity:1" />
      </g>
      <g
         transform="translate(154.423,214.361)"
         id="g301"
         style="opacity:1">
        <path
           stroke-miterlimit="10"
           d="m 0,0 m 4.258,-10.486 c -0.484,0.854 -0.911,2.345 -1.324,4.075 -0.207,0.872 -0.422,1.78 -0.631,2.66 -0.223,0.869 -0.454,1.706 -0.686,2.457 -0.53,1.706 -1.232,3.812 -2.221,5.844 -0.489,1.031 -1.034,2.076 -1.639,3.096 -0.609,1.006 -1.291,1.944 -2.015,2.84"
           id="path303"
           inkscape:connector-curvature="0"
           style="fill-opacity:0;stroke:#000000;stroke-width:1;stroke-linecap:butt;stroke-linejoin:miter;stroke-miterlimit:10;stroke-opacity:1" />
      </g>
      <g
         transform="translate(151.718,207.022)"
         id="g305"
         style="opacity:1">
        <path
           stroke-miterlimit="10"
           d="m 0,0 m 6.03,-0.594 c 0,0 -0.21,-1.174 -1.671,-1.226 -0.569,-0.028 -1.22,0.109 -1.942,0.274 -0.724,0.163 -1.496,0.41 -2.267,0.7 0,0 -0.004,0.002 -0.004,0.002 -2.341,0.843 -4.744,1.951 -5.628,2.27 -0.181,0.072 -0.363,0.217 -0.547,0.422"
           id="path307"
           inkscape:connector-curvature="0"
           style="fill-opacity:0;stroke:#000000;stroke-width:1;stroke-linecap:butt;stroke-linejoin:miter;stroke-miterlimit:10;stroke-opacity:1" />
      </g>
      <g
         transform="translate(141.821,226.804)"
         id="g309"
         style="opacity:1">
        <path
           stroke-miterlimit="10"
           d="m 0,0 m -8.344,1.133 c 0.91,0.598 2.18,0.8 3.606,0.818 0.712,0.008 1.463,-0.035 2.224,-0.114 0.757,-0.113 1.523,-0.266 2.274,-0.437 0.75,-0.173 1.484,-0.366 2.176,-0.565 0.69,-0.217 1.332,-0.463 1.914,-0.681 1.161,-0.443 2.065,-0.833 2.533,-1.034 0.497,-0.231 1.961,-1.078 1.961,-1.078"
           id="path311"
           inkscape:connector-curvature="0"
           style="fill-opacity:0;stroke:#000000;stroke-width:1;stroke-linecap:butt;stroke-linejoin:miter;stroke-miterlimit:10;stroke-opacity:1" />
      </g>
      <g
         transform="translate(139.583,218.404)"
         id="g313"
         style="opacity:1">
        <path
           stroke-miterlimit="10"
           d="m 0,0 m 6.105,-9.533 c -1.243,1.47 -2.79,5.743 -4.275,8.573 -0.837,1.566 -1.921,3.466 -3.256,5.342 -1.342,1.803 -2.924,3.703 -4.68,5.152"
           id="path315"
           inkscape:connector-curvature="0"
           style="fill-opacity:0;stroke:#000000;stroke-width:1;stroke-linecap:butt;stroke-linejoin:miter;stroke-miterlimit:10;stroke-opacity:1" />
      </g>
      <g
         transform="translate(138.162,210.425)"
         id="g317"
         style="opacity:1">
        <path
           stroke-miterlimit="10"
           d="m 0,0 m 6.148,0.808 c 0,0 0.012,-1.187 -1.419,-1.525 -1.11,-0.271 -2.684,-0.048 -4.317,0.175 0,0 -0.005,0.001 -0.005,0.001 -0.615,0.099 -1.235,0.223 -1.832,0.357 -0.602,0.116 -1.183,0.229 -1.717,0.334 -1.066,0.237 -1.942,0.433 -2.4,0.536 -0.193,0.033 -0.399,0.138 -0.618,0.302"
           id="path319"
           inkscape:connector-curvature="0"
           style="fill-opacity:0;stroke:#000000;stroke-width:1;stroke-linecap:butt;stroke-linejoin:miter;stroke-miterlimit:10;stroke-opacity:1" />
      </g>
      <g
         transform="translate(125,228.826)"
         id="g321"
         style="opacity:1">
        <path
           stroke-miterlimit="10"
           d="m 0,0 m -8.477,-0.888 c 0.791,0.706 1.999,1.177 3.396,1.477 1.398,0.258 2.983,0.299 4.518,0.266 3.076,-0.168 5.929,-0.779 6.915,-1.071 0.531,-0.136 2.125,-0.672 2.125,-0.672"
           id="path323"
           inkscape:connector-curvature="0"
           style="fill-opacity:0;stroke:#000000;stroke-width:1;stroke-linecap:butt;stroke-linejoin:miter;stroke-miterlimit:10;stroke-opacity:1" />
      </g>
      <g
         transform="translate(124.262,219.675)"
         id="g325"
         style="opacity:1">
        <path
           stroke-miterlimit="10"
           d="m 0,0 m 7.74,-8.262 c -0.765,0.572 -1.695,1.866 -2.704,3.345 -1.008,1.443 -2.099,3.029 -3.072,4.284 -1.109,1.457 -2.519,3.053 -4.171,4.654 -1.651,1.634 -3.538,3.067 -5.533,4.241"
           id="path327"
           inkscape:connector-curvature="0"
           style="fill-opacity:0;stroke:#000000;stroke-width:1;stroke-linecap:butt;stroke-linejoin:miter;stroke-miterlimit:10;stroke-opacity:1" />
      </g>
      <g
         transform="translate(124.248,212.263)"
         id="g329"
         style="opacity:1">
        <path
           stroke-miterlimit="10"
           d="m 0,0 m 5.961,1.195 c 0,0 0.229,-1.176 -1.115,-1.723 -1.044,-0.467 -2.639,-0.611 -4.288,-0.61 0,0 -0.004,0 -0.004,0 -1.249,-0.057 -2.531,-0.021 -3.624,0.038 -1.092,0.022 -1.989,0.038 -2.457,0.048 -0.196,0.005 -0.418,0.077 -0.663,0.206"
           id="path331"
           inkscape:connector-curvature="0"
           style="fill-opacity:0;stroke:#000000;stroke-width:1;stroke-linecap:butt;stroke-linejoin:miter;stroke-miterlimit:10;stroke-opacity:1" />
      </g>
      <g
         transform="translate(108.179,226.651)"
         id="g333"
         style="opacity:1">
        <path
           stroke-miterlimit="10"
           d="m 0,0 m -8.344,-1.805 c 1.28,1.734 4.426,2.729 7.473,3.158 3.053,0.452 5.986,0.271 7.003,0.215 0.271,-0.017 0.825,-0.067 1.31,-0.133 0.485,-0.079 0.902,-0.148 0.902,-0.148"
           id="path335"
           inkscape:connector-curvature="0"
           style="fill-opacity:0;stroke:#000000;stroke-width:1;stroke-linecap:butt;stroke-linejoin:miter;stroke-miterlimit:10;stroke-opacity:1" />
      </g>
      <g
         transform="translate(108.946,218.132)"
         id="g337"
         style="opacity:1">
        <path
           stroke-miterlimit="10"
           d="m 0,0 m 9.111,-6.715 c -0.861,0.476 -2.002,1.527 -3.259,2.781 -1.254,1.256 -2.622,2.669 -3.799,3.679 -2.671,2.386 -6.813,5.493 -11.165,6.97"
           id="path339"
           inkscape:connector-curvature="0"
           style="fill-opacity:0;stroke:#000000;stroke-width:1;stroke-linecap:butt;stroke-linejoin:miter;stroke-miterlimit:10;stroke-opacity:1" />
      </g>
      <g
         transform="translate(110.365,210.944)"
         id="g341"
         style="opacity:1">
        <path
           stroke-miterlimit="10"
           d="m 0,0 m 5.561,2.163 c 0,0 0.435,-1.108 -0.784,-1.919 -0.471,-0.318 -1.094,-0.56 -1.8,-0.776 -0.702,-0.243 -1.489,-0.438 -2.297,-0.596 0,0 -0.004,-0.001 -0.004,-0.001 -1.23,-0.21 -2.48,-0.47 -3.559,-0.625 -0.541,-0.075 -1.034,-0.143 -1.45,-0.2 -0.412,-0.073 -0.748,-0.134 -0.979,-0.175 -0.191,-0.034 -0.421,-0.007 -0.685,0.07"
           id="path343"
           inkscape:connector-curvature="0"
           style="fill-opacity:0;stroke:#000000;stroke-width:1;stroke-linecap:butt;stroke-linejoin:miter;stroke-miterlimit:10;stroke-opacity:1" />
      </g>
      <g
         transform="translate(91.913,221.803)"
         id="g345"
         style="opacity:1">
        <path
           stroke-miterlimit="10"
           d="m 0,0 m -7.923,-3.043 c 0.463,0.984 1.445,1.815 2.648,2.582 0.605,0.376 1.261,0.747 1.959,1.059 0.704,0.3 1.435,0.574 2.164,0.822 0.73,0.243 1.452,0.476 2.152,0.653 0.705,0.165 1.377,0.305 1.987,0.422 1.222,0.228 2.188,0.392 2.701,0.438 0.547,0.057 2.235,0.11 2.235,0.11"
           id="path347"
           inkscape:connector-curvature="0"
           style="fill-opacity:0;stroke:#000000;stroke-width:1;stroke-linecap:butt;stroke-linejoin:miter;stroke-miterlimit:10;stroke-opacity:1" />
      </g>
      <g
         transform="translate(94.18,213.823)"
         id="g349"
         style="opacity:1">
        <path
           stroke-miterlimit="10"
           d="m 0,0 m 10.189,-4.937 c -1.828,0.599 -5.38,3.438 -8.129,5.082 -1.533,0.897 -3.441,1.931 -5.567,2.849 -2.086,0.835 -4.424,1.618 -6.682,1.943"
           id="path351"
           inkscape:connector-curvature="0"
           style="fill-opacity:0;stroke:#000000;stroke-width:1;stroke-linecap:butt;stroke-linejoin:miter;stroke-miterlimit:10;stroke-opacity:1" />
      </g>
      <g
         transform="translate(96.77,207.029)"
         id="g353"
         style="opacity:1">
        <path
           stroke-miterlimit="10"
           d="m 0,0 m 5.188,3.152 c 0,0 0.161,-0.254 0.187,-0.631 0.023,-0.372 -0.082,-0.887 -0.601,-1.407 -0.799,-0.829 -2.266,-1.438 -3.772,-2.109 0,0 -0.004,-0.001 -0.004,-0.001 -2.321,-0.902 -4.808,-1.782 -5.712,-2.066 -0.181,-0.071 -0.412,-0.09 -0.684,-0.064"
           id="path355"
           inkscape:connector-curvature="0"
           style="fill-opacity:0;stroke:#000000;stroke-width:1;stroke-linecap:butt;stroke-linejoin:miter;stroke-miterlimit:10;stroke-opacity:1" />
      </g>
      <g
         transform="translate(76.759,214.326)"
         id="g357"
         style="opacity:1">
        <path
           stroke-miterlimit="10"
           d="m 0,0 m -7.232,-4.434 c 0.308,1.01 1.098,2.035 2.136,3.013 1.026,0.998 2.385,1.819 3.708,2.599 2.7,1.486 5.466,2.443 6.454,2.716 0.524,0.161 2.166,0.539 2.166,0.539"
           id="path359"
           inkscape:connector-curvature="0"
           style="fill-opacity:0;stroke:#000000;stroke-width:1;stroke-linecap:butt;stroke-linejoin:miter;stroke-miterlimit:10;stroke-opacity:1" />
      </g>
      <g
         transform="translate(80.45,206.91)"
         id="g361"
         style="opacity:1">
        <path
           stroke-miterlimit="10"
           d="m 0,0 m 10.923,-3.007 c -0.951,0.088 -2.419,0.705 -4.053,1.438 -1.609,0.695 -3.375,1.487 -4.861,2.046 -1.708,0.663 -3.733,1.266 -5.992,1.785 -2.252,0.511 -4.613,0.746 -6.94,0.721"
           id="path363"
           inkscape:connector-curvature="0"
           style="fill-opacity:0;stroke:#000000;stroke-width:1;stroke-linecap:butt;stroke-linejoin:miter;stroke-miterlimit:10;stroke-opacity:1" />
      </g>
      <g
         transform="translate(84.537,200.666)"
         id="g365"
         style="opacity:1">
        <path
           stroke-miterlimit="10"
           d="m 0,0 m 4.239,4.043 c 0,0 0.809,-0.884 -0.05,-2.052 -0.636,-0.959 -1.937,-1.88 -3.324,-2.769 0,0 -0.004,-0.002 -0.004,-0.002 -1.03,-0.705 -2.167,-1.306 -3.102,-1.865 -0.932,-0.564 -1.721,-0.999 -2.13,-1.232 -0.17,-0.097 -0.399,-0.148 -0.677,-0.166"
           id="path367"
           inkscape:connector-curvature="0"
           style="fill-opacity:0;stroke:#000000;stroke-width:1;stroke-linecap:butt;stroke-linejoin:miter;stroke-miterlimit:10;stroke-opacity:1" />
      </g>
      <g
         transform="translate(63.232,204.214)"
         id="g369"
         style="opacity:1">
        <path
           stroke-miterlimit="10"
           d="m 0,0 m -6.296,-5.678 c 0.115,1.054 0.7,2.212 1.536,3.369 0.872,1.121 2.013,2.223 3.175,3.226 1.202,0.961 2.441,1.804 3.478,2.478 1.053,0.656 1.937,1.101 2.384,1.347 0.483,0.257 2.019,0.936 2.019,0.936"
           id="path371"
           inkscape:connector-curvature="0"
           style="fill-opacity:0;stroke:#000000;stroke-width:1;stroke-linecap:butt;stroke-linejoin:miter;stroke-miterlimit:10;stroke-opacity:1" />
      </g>
      <g
         transform="translate(68.213,197.823)"
         id="g373"
         style="opacity:1">
        <path
           stroke-miterlimit="10"
           d="m 0,0 m 11.276,-1.2 c -1.872,-0.165 -6.284,1.303 -9.387,1.792 -0.884,0.152 -1.883,0.321 -2.926,0.437 -1.037,0.11 -2.144,0.194 -3.29,0.233 -2.314,0.103 -4.686,-0.084 -6.949,-0.549"
           id="path375"
           inkscape:connector-curvature="0"
           style="fill-opacity:0;stroke:#000000;stroke-width:1;stroke-linecap:butt;stroke-linejoin:miter;stroke-miterlimit:10;stroke-opacity:1" />
      </g>
      <g
         transform="translate(73.441,192.107)"
         id="g377"
         style="opacity:1">
        <path
           stroke-miterlimit="10"
           d="m 0,0 m 3.357,4.822 c 0,0 0.954,-0.719 0.33,-2.035 -0.503,-0.998 -1.543,-2.229 -2.786,-3.312 0,0 -0.003,-0.003 -0.003,-0.003 -0.898,-0.868 -1.863,-1.712 -2.715,-2.398 -0.827,-0.714 -1.507,-1.3 -1.863,-1.606 -0.148,-0.127 -0.362,-0.222 -0.631,-0.291"
           id="path379"
           inkscape:connector-curvature="0"
           style="fill-opacity:0;stroke:#000000;stroke-width:1;stroke-linecap:butt;stroke-linejoin:miter;stroke-miterlimit:10;stroke-opacity:1" />
      </g>
      <g
         transform="translate(51.732,191.816)"
         id="g381"
         style="opacity:1">
        <path
           stroke-miterlimit="10"
           d="m 0,0 m -5.133,-6.72 c -0.072,1.054 0.247,2.33 0.903,3.591 0.666,1.253 1.537,2.582 2.541,3.747 1.015,1.158 2.044,2.243 2.968,3.071 0.934,0.821 1.7,1.439 2.097,1.759 0.212,0.171 0.663,0.497 1.061,0.778 0.412,0.266 0.767,0.494 0.767,0.494"
           id="path383"
           inkscape:connector-curvature="0"
           style="fill-opacity:0;stroke:#000000;stroke-width:1;stroke-linecap:butt;stroke-linejoin:miter;stroke-miterlimit:10;stroke-opacity:1" />
      </g>
      <g
         transform="translate(57.865,186.233)"
         id="g385"
         style="opacity:1">
        <path
           stroke-miterlimit="10"
           d="m 0,0 m 11.266,1.052 c -0.958,-0.224 -2.506,-0.211 -4.286,-0.115 -0.895,0.049 -1.825,0.099 -2.729,0.149 -0.892,0.03 -1.766,0.051 -2.552,0.042 -1.793,-0.018 -4,-0.099 -6.235,-0.463 -1.128,-0.173 -2.286,-0.397 -3.437,-0.684 -1.12,-0.307 -2.231,-0.68 -3.293,-1.118"
           id="path387"
           inkscape:connector-curvature="0"
           style="fill-opacity:0;stroke:#000000;stroke-width:1;stroke-linecap:butt;stroke-linejoin:miter;stroke-miterlimit:10;stroke-opacity:1" />
      </g>
      <g
         transform="translate(64.054,181.674)"
         id="g389"
         style="opacity:1">
        <path
           stroke-miterlimit="10"
           d="m 0,0 m 2.362,5.437 c 0,0 1.065,-0.532 0.699,-1.948 -0.308,-1.079 -1.145,-2.447 -2.136,-3.764 0,0 -0.003,-0.003 -0.003,-0.003 -1.478,-2.008 -3.224,-4.001 -3.787,-4.757 -0.121,-0.152 -0.312,-0.285 -0.562,-0.402"
           id="path391"
           inkscape:connector-curvature="0"
           style="fill-opacity:0;stroke:#000000;stroke-width:1;stroke-linecap:butt;stroke-linejoin:miter;stroke-miterlimit:10;stroke-opacity:1" />
      </g>
      <g
         transform="translate(42.587,177.546)"
         id="g393"
         style="opacity:1">
        <path
           stroke-miterlimit="10"
           d="m 0,0 m -3.723,-7.55 c -0.29,1.035 -0.179,2.335 0.243,3.693 0.404,1.367 1.025,2.829 1.819,4.151 1.488,2.701 3.447,4.899 4.087,5.683 0.339,0.425 1.586,1.574 1.586,1.574"
           id="path395"
           inkscape:connector-curvature="0"
           style="fill-opacity:0;stroke:#000000;stroke-width:1;stroke-linecap:butt;stroke-linejoin:miter;stroke-miterlimit:10;stroke-opacity:1" />
      </g>
      <g
         transform="translate(49.746,173.116)"
         id="g397"
         style="opacity:1">
        <path
           stroke-miterlimit="10"
           d="m 0,0 m 10.882,3.121 c -0.437,-0.205 -1.054,-0.363 -1.786,-0.496 -0.719,-0.142 -1.538,-0.27 -2.414,-0.387 -1.734,-0.243 -3.725,-0.445 -5.235,-0.765 -3.511,-0.668 -8.502,-2.049 -12.329,-4.594"
           id="path399"
           inkscape:connector-curvature="0"
           style="fill-opacity:0;stroke:#000000;stroke-width:1;stroke-linecap:butt;stroke-linejoin:miter;stroke-miterlimit:10;stroke-opacity:1" />
      </g>
      <g
         transform="translate(56.695,169.715)"
         id="g401"
         style="opacity:1">
        <path
           stroke-miterlimit="10"
           d="m 0,0 m 1.28,5.87 c 0,0 1.141,-0.329 1.049,-1.795 -0.035,-0.567 -0.21,-1.218 -0.478,-1.904 -0.262,-0.691 -0.561,-1.447 -0.931,-2.183 0,0 -0.003,-0.004 -0.003,-0.004 -0.574,-1.107 -1.161,-2.244 -1.679,-3.203 -0.531,-0.952 -0.988,-1.727 -1.187,-2.151 -0.089,-0.173 -0.251,-0.338 -0.472,-0.5"
           id="path403"
           inkscape:connector-curvature="0"
           style="fill-opacity:0;stroke:#000000;stroke-width:1;stroke-linecap:butt;stroke-linejoin:miter;stroke-miterlimit:10;stroke-opacity:1" />
      </g>
      <g
         transform="translate(35.984,161.862)"
         id="g405"
         style="opacity:1">
        <path
           stroke-miterlimit="10"
           d="m 0,0 m -1.975,-8.134 c -0.905,1.915 -0.438,5.187 0.602,8.089 0.468,1.467 1.117,2.825 1.676,3.934 0.56,1.11 1.021,1.974 1.306,2.405 0.287,0.468 1.271,1.84 1.271,1.84"
           id="path407"
           inkscape:connector-curvature="0"
           style="fill-opacity:0;stroke:#000000;stroke-width:1;stroke-linecap:butt;stroke-linejoin:miter;stroke-miterlimit:10;stroke-opacity:1" />
      </g>
      <g
         transform="translate(44.141,158.786)"
         id="g409"
         style="opacity:1">
        <path
           stroke-miterlimit="10"
           d="m 0,0 m 10.132,5.059 c -0.762,-0.569 -2.321,-1.068 -3.977,-1.629 -1.661,-0.555 -3.521,-1.138 -5.008,-1.709 -1.659,-0.663 -3.625,-1.549 -5.651,-2.673 -1.962,-1.135 -3.959,-2.521 -5.628,-4.106"
           id="path411"
           inkscape:connector-curvature="0"
           style="fill-opacity:0;stroke:#000000;stroke-width:1;stroke-linecap:butt;stroke-linejoin:miter;stroke-miterlimit:10;stroke-opacity:1" />
      </g>
      <g
         transform="translate(51.748,156.617)"
         id="g413"
         style="opacity:1">
        <path
           stroke-miterlimit="10"
           d="m 0,0 m 0.034,6.106 c 0,0 0.299,-0.027 0.614,-0.237 0.314,-0.211 0.635,-0.6 0.74,-1.332 0.075,-0.567 0.029,-1.24 -0.099,-1.966 -0.14,-0.724 -0.336,-1.509 -0.531,-2.31 0,0 -0.002,-0.004 -0.002,-0.004 -0.694,-2.39 -1.525,-4.892 -1.843,-5.785 -0.068,-0.183 -0.193,-0.377 -0.376,-0.578"
           id="path415"
           inkscape:connector-curvature="0"
           style="fill-opacity:0;stroke:#000000;stroke-width:1;stroke-linecap:butt;stroke-linejoin:miter;stroke-miterlimit:10;stroke-opacity:1" />
      </g>
      <g
         transform="translate(32.518,145.292)"
         id="g417"
         style="opacity:1">
        <path
           stroke-miterlimit="10"
           d="m 0,0 m -0.277,-8.436 c -0.622,0.859 -0.967,2.11 -1.123,3.53 -0.092,1.417 0.012,3 0.207,4.524 0.242,1.52 0.612,2.977 0.933,4.173 0.316,1.197 0.705,2.116 0.867,2.598 0.189,0.515 0.885,2.047 0.885,2.047"
           id="path419"
           inkscape:connector-curvature="0"
           style="fill-opacity:0;stroke:#000000;stroke-width:1;stroke-linecap:butt;stroke-linejoin:miter;stroke-miterlimit:10;stroke-opacity:1" />
      </g>
      <g
         transform="translate(41.263,143.683)"
         id="g421"
         style="opacity:1">
        <path
           stroke-miterlimit="10"
           d="m 0,0 m 9.022,6.827 c -0.646,-0.699 -2.024,-1.486 -3.596,-2.335 -1.574,-0.843 -3.234,-1.766 -4.589,-2.601 -1.558,-0.95 -3.318,-2.183 -5.066,-3.661 -1.79,-1.472 -3.432,-3.198 -4.793,-5.057"
           id="path423"
           inkscape:connector-curvature="0"
           style="fill-opacity:0;stroke:#000000;stroke-width:1;stroke-linecap:butt;stroke-linejoin:miter;stroke-miterlimit:10;stroke-opacity:1" />
      </g>
      <g
         transform="translate(49.045,142.851)"
         id="g425"
         style="opacity:1">
        <path
           stroke-miterlimit="10"
           d="m 0,0 m -0.972,6.094 c 0,0 1.191,0.102 1.6,-1.292 0.318,-1.08 0.344,-2.685 0.147,-4.319 0,0 -0.001,-0.004 -0.001,-0.004 -0.076,-1.246 -0.236,-2.517 -0.407,-3.596 -0.136,-1.084 -0.249,-1.976 -0.308,-2.442 -0.024,-0.194 -0.119,-0.408 -0.272,-0.638"
           id="path427"
           inkscape:connector-curvature="0"
           style="fill-opacity:0;stroke:#000000;stroke-width:1;stroke-linecap:butt;stroke-linejoin:miter;stroke-miterlimit:10;stroke-opacity:1" />
      </g>
      <g
         transform="translate(30.94,129.02)"
         id="g429"
         style="opacity:1">
        <path
           stroke-miterlimit="10"
           d="m 0,0 m 1.271,-7.836 c -2.572,3.123 -0.869,11.743 -0.509,13.579 0.084,0.444 0.539,2.093 0.539,2.093"
           id="path431"
           inkscape:connector-curvature="0"
           style="fill-opacity:0;stroke:#000000;stroke-width:1;stroke-linecap:butt;stroke-linejoin:miter;stroke-miterlimit:10;stroke-opacity:1" />
      </g>
      <g
         transform="translate(40.521,128.919)"
         id="g433"
         style="opacity:1">
        <path
           stroke-miterlimit="10"
           d="m 0,0 m 8.311,7.736 c -0.264,-0.416 -0.722,-0.837 -1.265,-1.384 -0.543,-0.544 -1.196,-1.119 -1.894,-1.701 -1.397,-1.163 -2.971,-2.351 -4.196,-3.356 -2.799,-2.301 -6.637,-5.588 -9.267,-9.03"
           id="path435"
           inkscape:connector-curvature="0"
           style="fill-opacity:0;stroke:#000000;stroke-width:1;stroke-linecap:butt;stroke-linejoin:miter;stroke-miterlimit:10;stroke-opacity:1" />
      </g>
      <g
         transform="translate(48.18,128.099)"
         id="g437"
         style="opacity:1">
        <path
           stroke-miterlimit="10"
           d="m 0,0 m -1.283,6.536 c 0,0 1.154,0.346 1.804,-1.113 0.505,-1.133 0.69,-2.921 0.719,-4.775 0,0 0,-0.005 0,-0.005 0.043,-2.806 -0.27,-5.76 -0.364,-6.808 -0.019,-0.217 -0.109,-0.458 -0.256,-0.717"
           id="path439"
           inkscape:connector-curvature="0"
           style="fill-opacity:0;stroke:#000000;stroke-width:1;stroke-linecap:butt;stroke-linejoin:miter;stroke-miterlimit:10;stroke-opacity:1" />
      </g>
      <g
         transform="translate(30.924,113.402)"
         id="g441"
         style="opacity:1">
        <path
           stroke-miterlimit="10"
           d="m 0,0 m 1.286,-7.782 c -2.572,3.123 -0.868,11.744 -0.508,13.579 0.096,0.488 0.508,1.985 0.508,1.985"
           id="path443"
           inkscape:connector-curvature="0"
           style="fill-opacity:0;stroke:#000000;stroke-width:1;stroke-linecap:butt;stroke-linejoin:miter;stroke-miterlimit:10;stroke-opacity:1" />
      </g>
      <g
         transform="translate(40.506,113.418)"
         id="g445"
         style="opacity:1">
        <path
           stroke-miterlimit="10"
           d="m 0,0 m 8.296,7.799 c -1.028,-1.818 -4.876,-4.555 -7.325,-6.567 -2.799,-2.301 -6.637,-5.588 -9.267,-9.031"
           id="path447"
           inkscape:connector-curvature="0"
           style="fill-opacity:0;stroke:#000000;stroke-width:1;stroke-linecap:butt;stroke-linejoin:miter;stroke-miterlimit:10;stroke-opacity:1" />
      </g>
      <g
         transform="translate(48.18,112.535)"
         id="g449"
         style="opacity:1">
        <path
           stroke-miterlimit="10"
           d="m 0,0 m -1.283,6.536 c 0,0 1.154,0.347 1.804,-1.112 0.505,-1.133 0.69,-2.922 0.719,-4.775 0,0 0,-0.005 0,-0.005 0.043,-2.807 -0.27,-5.762 -0.364,-6.809 -0.019,-0.217 -0.109,-0.458 -0.256,-0.718"
           id="path451"
           inkscape:connector-curvature="0"
           style="fill-opacity:0;stroke:#000000;stroke-width:1;stroke-linecap:butt;stroke-linejoin:miter;stroke-miterlimit:10;stroke-opacity:1" />
      </g>
      <g
         transform="translate(30.924,97.838)"
         id="g453"
         style="opacity:1">
        <path
           stroke-miterlimit="10"
           d="m 0,0 m 1.286,-7.782 c -2.572,3.123 -0.868,11.744 -0.508,13.579 0.096,0.488 0.508,1.985 0.508,1.985"
           id="path455"
           inkscape:connector-curvature="0"
           style="fill-opacity:0;stroke:#000000;stroke-width:1;stroke-linecap:butt;stroke-linejoin:miter;stroke-miterlimit:10;stroke-opacity:1" />
      </g>
      <g
         transform="translate(40.506,97.854)"
         id="g457"
         style="opacity:1">
        <path
           stroke-miterlimit="10"
           d="m 0,0 m 8.296,7.799 c -1.028,-1.818 -4.876,-4.555 -7.325,-6.567 -2.799,-2.301 -6.637,-5.588 -9.267,-9.031"
           id="path459"
           inkscape:connector-curvature="0"
           style="fill-opacity:0;stroke:#000000;stroke-width:1;stroke-linecap:butt;stroke-linejoin:miter;stroke-miterlimit:10;stroke-opacity:1" />
      </g>
      <g
         transform="translate(48.18,96.971)"
         id="g461"
         style="opacity:1">
        <path
           stroke-miterlimit="10"
           d="m 0,0 m -1.283,6.536 c 0,0 1.154,0.347 1.804,-1.112 0.505,-1.133 0.69,-2.922 0.719,-4.775 0,0 0,-0.005 0,-0.005 0.043,-2.807 -0.27,-5.761 -0.364,-6.809 -0.019,-0.217 -0.109,-0.458 -0.256,-0.718"
           id="path463"
           inkscape:connector-curvature="0"
           style="fill-opacity:0;stroke:#000000;stroke-width:1;stroke-linecap:butt;stroke-linejoin:miter;stroke-miterlimit:10;stroke-opacity:1" />
      </g>
      <g
         transform="translate(30.924,82.274)"
         id="g465"
         style="opacity:1">
        <path
           stroke-miterlimit="10"
           d="m 0,0 m 1.286,-7.782 c -2.572,3.123 -0.868,11.744 -0.508,13.579 0.096,0.488 0.508,1.985 0.508,1.985"
           id="path467"
           inkscape:connector-curvature="0"
           style="fill-opacity:0;stroke:#000000;stroke-width:1;stroke-linecap:butt;stroke-linejoin:miter;stroke-miterlimit:10;stroke-opacity:1" />
      </g>
      <g
         transform="translate(40.506,82.29)"
         id="g469"
         style="opacity:1">
        <path
           stroke-miterlimit="10"
           d="m 0,0 m 8.296,7.799 c -1.028,-1.818 -4.876,-4.555 -7.325,-6.567 -2.799,-2.301 -6.637,-5.588 -9.267,-9.031"
           id="path471"
           inkscape:connector-curvature="0"
           style="fill-opacity:0;stroke:#000000;stroke-width:1;stroke-linecap:butt;stroke-linejoin:miter;stroke-miterlimit:10;stroke-opacity:1" />
      </g>
      <g
         transform="translate(48.18,81.407)"
         id="g473"
         style="opacity:1">
        <path
           stroke-miterlimit="10"
           d="m 0,0 m -1.283,6.536 c 0,0 1.154,0.347 1.804,-1.112 0.505,-1.133 0.69,-2.922 0.719,-4.775 0,0 0,-0.005 0,-0.005 0.043,-2.807 -0.27,-5.761 -0.364,-6.809 -0.019,-0.217 -0.109,-0.458 -0.256,-0.718"
           id="path475"
           inkscape:connector-curvature="0"
           style="fill-opacity:0;stroke:#000000;stroke-width:1;stroke-linecap:butt;stroke-linejoin:miter;stroke-miterlimit:10;stroke-opacity:1" />
      </g>
      <g
         transform="translate(30.924,66.71)"
         id="g477"
         style="opacity:1">
        <path
           stroke-miterlimit="10"
           d="m 0,0 m 1.286,-7.782 c -2.572,3.123 -0.868,11.744 -0.508,13.579 0.096,0.488 0.508,1.985 0.508,1.985"
           id="path479"
           inkscape:connector-curvature="0"
           style="fill-opacity:0;stroke:#000000;stroke-width:1;stroke-linecap:butt;stroke-linejoin:miter;stroke-miterlimit:10;stroke-opacity:1" />
      </g>
      <g
         transform="translate(40.506,66.726)"
         id="g481"
         style="opacity:1">
        <path
           stroke-miterlimit="10"
           d="m 0,0 m 8.296,7.799 c -1.028,-1.818 -4.876,-4.555 -7.325,-6.567 -2.799,-2.301 -6.637,-5.588 -9.267,-9.031"
           id="path483"
           inkscape:connector-curvature="0"
           style="fill-opacity:0;stroke:#000000;stroke-width:1;stroke-linecap:butt;stroke-linejoin:miter;stroke-miterlimit:10;stroke-opacity:1" />
      </g>
      <g
         transform="translate(48.18,65.843)"
         id="g485"
         style="opacity:1">
        <path
           stroke-miterlimit="10"
           d="m 0,0 m -1.283,6.536 c 0,0 1.154,0.347 1.804,-1.112 0.505,-1.133 0.69,-2.922 0.719,-4.775 0,0 0,-0.005 0,-0.005 0.043,-2.807 -0.27,-5.761 -0.364,-6.809 -0.019,-0.217 -0.109,-0.458 -0.256,-0.718"
           id="path487"
           inkscape:connector-curvature="0"
           style="fill-opacity:0;stroke:#000000;stroke-width:1;stroke-linecap:butt;stroke-linejoin:miter;stroke-miterlimit:10;stroke-opacity:1" />
      </g>
      <g
         transform="translate(30.924,51.146)"
         id="g489"
         style="opacity:1">
        <path
           stroke-miterlimit="10"
           d="m 0,0 m 1.286,-7.782 c -2.572,3.123 -0.868,11.744 -0.508,13.579 0.096,0.488 0.508,1.985 0.508,1.985"
           id="path491"
           inkscape:connector-curvature="0"
           style="fill-opacity:0;stroke:#000000;stroke-width:1;stroke-linecap:butt;stroke-linejoin:miter;stroke-miterlimit:10;stroke-opacity:1" />
      </g>
      <g
         transform="translate(40.506,51.162)"
         id="g493"
         style="opacity:1">
        <path
           stroke-miterlimit="10"
           d="m 0,0 m 8.296,7.799 c -1.028,-1.818 -4.876,-4.554 -7.325,-6.567 -2.799,-2.301 -6.637,-5.588 -9.267,-9.031"
           id="path495"
           inkscape:connector-curvature="0"
           style="fill-opacity:0;stroke:#000000;stroke-width:1;stroke-linecap:butt;stroke-linejoin:miter;stroke-miterlimit:10;stroke-opacity:1" />
      </g>
      <g
         transform="translate(48.18,50.279)"
         id="g497"
         style="opacity:1">
        <path
           stroke-miterlimit="10"
           d="m 0,0 m -1.283,6.536 c 0,0 1.154,0.347 1.804,-1.112 0.505,-1.133 0.69,-2.922 0.719,-4.775 0,0 0,-0.005 0,-0.005 0.043,-2.807 -0.27,-5.761 -0.364,-6.809 -0.019,-0.217 -0.109,-0.458 -0.256,-0.718"
           id="path499"
           inkscape:connector-curvature="0"
           style="fill-opacity:0;stroke:#000000;stroke-width:1;stroke-linecap:butt;stroke-linejoin:miter;stroke-miterlimit:10;stroke-opacity:1" />
      </g>
      <g
         transform="translate(210,24.565)"
         id="g501"
         style="opacity:1">
        <path
           stroke-miterlimit="10"
           d="m 0,0 m 10.314,0.695 c 0,0 -0.199,-0.118 -0.199,-0.118 0,0 -0.21,-0.11 -0.21,-0.11 0,0 -0.22,-0.106 -0.22,-0.106 0,0 -0.228,-0.099 -0.228,-0.099 0,0 -0.239,-0.093 -0.239,-0.093 0,0 -0.247,-0.088 -0.247,-0.088 0,0 -0.256,-0.084 -0.256,-0.084 0,0 -0.263,-0.076 -0.263,-0.076 -0.18,-0.045 -0.363,-0.092 -0.55,-0.139 -0.189,-0.039 -0.382,-0.079 -0.577,-0.119 -0.199,-0.033 -0.399,-0.067 -0.603,-0.101 -0.205,-0.027 -0.414,-0.054 -0.625,-0.082 -0.211,-0.022 -0.426,-0.042 -0.642,-0.065 -0.218,-0.016 -0.438,-0.032 -0.66,-0.049 -0.221,-0.012 -0.446,-0.024 -0.671,-0.035 0,0 -0.682,-0.021 -0.682,-0.021 -0.457,-0.002 -0.919,-0.004 -1.381,-0.005 -0.463,0.013 -0.926,0.025 -1.386,0.037 -0.459,0.024 -0.916,0.048 -1.365,0.071 -0.448,0.033 -0.891,0.067 -1.321,0.099 -0.43,0.04 -0.85,0.079 -1.254,0.116 -0.403,0.044 -0.792,0.086 -1.161,0.126 -0.739,0.093 -1.401,0.177 -1.955,0.247 -0.553,0.08 -0.997,0.144 -1.302,0.187 -0.161,0.029 -0.406,0.071 -0.684,0.12 -0.277,0.054 -0.586,0.114 -0.874,0.17 -0.577,0.117 -1.073,0.217 -1.073,0.217"
           id="path503"
           inkscape:connector-curvature="0"
           style="fill-opacity:0;stroke:#000000;stroke-width:1;stroke-linecap:butt;stroke-linejoin:miter;stroke-miterlimit:10;stroke-opacity:1" />
      </g>
      <g
         transform="translate(209.979,33.556)"
         id="g505"
         style="opacity:1">
        <path
           stroke-miterlimit="10"
           d="m 0,0 m -10.335,8.296 c 0.074,-0.034 0.149,-0.068 0.228,-0.104 0.077,-0.04 0.156,-0.08 0.237,-0.121 0.078,-0.044 0.159,-0.088 0.242,-0.135 0.081,-0.049 0.164,-0.098 0.248,-0.149 0.165,-0.109 0.336,-0.221 0.513,-0.339 0.172,-0.124 0.349,-0.253 0.532,-0.385 0.178,-0.139 0.362,-0.282 0.549,-0.428 0.182,-0.151 0.369,-0.305 0.559,-0.462 0.187,-0.161 0.377,-0.325 0.57,-0.492 0.19,-0.169 0.382,-0.341 0.576,-0.514 0.382,-0.353 0.769,-0.713 1.158,-1.072 0.383,-0.365 0.768,-0.73 1.146,-1.09 0.756,-0.717 1.488,-1.41 2.145,-2.033 0.383,-0.348 0.784,-0.715 1.202,-1.094 0.423,-0.375 0.862,-0.765 1.313,-1.166 0.457,-0.393 0.928,-0.797 1.409,-1.209 0.489,-0.403 0.987,-0.813 1.493,-1.229 0.516,-0.402 1.036,-0.81 1.563,-1.22 0,0 0.804,-0.599 0.804,-0.599 0,0 0.817,-0.587 0.817,-0.587 0,0 0.829,-0.572 0.829,-0.572 0,0 0.839,-0.554 0.839,-0.554 0,0 0.844,-0.531 0.844,-0.531 0,0 0.854,-0.507 0.854,-0.507"
           id="path507"
           inkscape:connector-curvature="0"
           style="fill-opacity:0;stroke:#000000;stroke-width:1;stroke-linecap:butt;stroke-linejoin:miter;stroke-miterlimit:10;stroke-opacity:1" />
      </g>
      <g
         transform="translate(211.355,41.209)"
         id="g509"
         style="opacity:1">
        <path
           stroke-miterlimit="10"
           d="m 0,0 m -8.868,-1.262 c 0,0 -0.007,0.02 -0.017,0.052 -0.004,0.016 -0.008,0.037 -0.013,0.06 -0.004,0.023 -0.008,0.049 -0.012,0.078 -0.002,0.03 -0.004,0.064 -0.006,0.099 0.001,0.035 0.002,0.071 0.004,0.11 0,0 0.007,0.062 0.007,0.062 0,0 0.012,0.063 0.012,0.063 0,0 0.015,0.067 0.015,0.067 0,0 0.022,0.067 0.022,0.067 0,0 0.026,0.071 0.026,0.071 0,0 0.033,0.071 0.033,0.071 0,0 0.04,0.075 0.04,0.075 0,0 0.047,0.074 0.047,0.074 0,0 0.055,0.073 0.055,0.073 0,0 0.062,0.077 0.062,0.077 0,0 0.072,0.074 0.072,0.074 0,0 0.081,0.075 0.081,0.075 0,0 0.091,0.076 0.091,0.076 0,0 0.101,0.073 0.101,0.073 0,0 0.112,0.073 0.112,0.073 0,0 0.123,0.071 0.123,0.071 0,0 0.136,0.069 0.136,0.069 0,0 0.149,0.067 0.149,0.067 0.051,0.021 0.105,0.043 0.16,0.065 0.056,0.02 0.114,0.041 0.175,0.062 0.094,0.03 0.191,0.061 0.291,0.093 0.101,0.026 0.205,0.053 0.311,0.082 0.107,0.025 0.217,0.051 0.328,0.078 0.114,0.023 0.229,0.045 0.346,0.068 0.237,0.039 0.483,0.079 0.738,0.121 0.256,0.031 0.52,0.064 0.791,0.097 0.273,0.024 0.552,0.047 0.837,0.073 0.285,0.017 0.576,0.036 0.871,0.054 0.296,0.011 0.596,0.023 0.899,0.035 0.302,0.006 0.608,0.011 0.916,0.017 0,0 0.007,0 0.007,0 0,0 1.398,0.002 1.398,0.002 0.466,-0.009 0.929,-0.018 1.385,-0.026 0.456,-0.016 0.904,-0.032 1.34,-0.047 0.435,-0.02 0.857,-0.039 1.261,-0.058 1.617,-0.103 2.944,-0.188 3.638,-0.233 0,0 0.109,-0.011 0.109,-0.011 0,0 0.113,-0.017 0.113,-0.017 0,0 0.115,-0.024 0.115,-0.024 0,0 0.117,-0.028 0.117,-0.028 0.079,-0.024 0.16,-0.05 0.244,-0.076 0.082,-0.032 0.166,-0.066 0.253,-0.1"
           id="path511"
           inkscape:connector-curvature="0"
           style="fill-opacity:0;stroke:#000000;stroke-width:1;stroke-linecap:butt;stroke-linejoin:miter;stroke-miterlimit:10;stroke-opacity:1" />
      </g>
      <g
         transform="translate(218.486,33.05)"
         id="g513"
         style="opacity:1">
        <path
           stroke-miterlimit="10"
           d="m 0,0 m -0.695,10.314 c 0,0 0.116,-0.199 0.116,-0.199 0,0 0.112,-0.21 0.112,-0.21 0,0 0.106,-0.219 0.106,-0.219 0,0 0.099,-0.229 0.099,-0.229 0,0 0.092,-0.239 0.092,-0.239 0,0 0.089,-0.247 0.089,-0.247 0,0 0.082,-0.255 0.082,-0.255 0,0 0.077,-0.264 0.077,-0.264 0.046,-0.179 0.092,-0.363 0.139,-0.55 0.039,-0.189 0.08,-0.381 0.12,-0.577 0.033,-0.198 0.067,-0.399 0.101,-0.603 0.026,-0.205 0.054,-0.413 0.082,-0.624 0.021,-0.212 0.043,-0.426 0.065,-0.643 0.016,-0.217 0.031,-0.437 0.048,-0.659 0.012,-0.222 0.025,-0.446 0.036,-0.672 0,0 0.021,-0.682 0.021,-0.682 0.001,-0.457 0.003,-0.919 0.005,-1.381 -0.013,-0.462 -0.025,-0.925 -0.037,-1.385 -0.024,-0.46 -0.049,-0.916 -0.073,-1.365 -0.033,-0.449 -0.065,-0.892 -0.097,-1.323 -0.039,-0.43 -0.08,-0.848 -0.117,-1.252 -0.044,-0.404 -0.086,-0.793 -0.126,-1.162 -0.093,-0.738 -0.176,-1.401 -0.247,-1.955 -0.079,-0.553 -0.143,-0.997 -0.187,-1.301 -0.028,-0.161 -0.071,-0.408 -0.119,-0.685 -0.055,-0.277 -0.115,-0.586 -0.17,-0.875 -0.117,-0.576 -0.217,-1.072 -0.217,-1.072"
           id="path515"
           inkscape:connector-curvature="0"
           style="fill-opacity:0;stroke:#000000;stroke-width:1;stroke-linecap:butt;stroke-linejoin:miter;stroke-miterlimit:10;stroke-opacity:1" />
      </g>
      <g
         transform="translate(209.495,33.028)"
         id="g517"
         style="opacity:1">
        <path
           stroke-miterlimit="10"
           d="m 0,0 m -8.296,-10.335 c 0.034,0.074 0.069,0.151 0.104,0.229 0.04,0.077 0.08,0.156 0.121,0.236 0.044,0.079 0.089,0.16 0.135,0.243 0.049,0.081 0.099,0.164 0.15,0.248 0.108,0.165 0.221,0.336 0.338,0.513 0.125,0.172 0.254,0.349 0.385,0.532 0.14,0.178 0.283,0.361 0.428,0.548 0.151,0.183 0.306,0.37 0.463,0.56 0.161,0.187 0.325,0.377 0.491,0.57 0.169,0.19 0.341,0.382 0.514,0.576 0.353,0.381 0.713,0.769 1.072,1.158 0.365,0.383 0.731,0.767 1.09,1.144 0.717,0.757 1.41,1.489 2.033,2.147 0.348,0.382 0.714,0.784 1.094,1.202 0.375,0.423 0.765,0.861 1.165,1.312 0.393,0.458 0.797,0.929 1.21,1.409 0.402,0.489 0.812,0.988 1.228,1.493 0.403,0.515 0.81,1.038 1.22,1.563 0,0 0.599,0.805 0.599,0.805 0,0 0.588,0.817 0.588,0.817 0,0 0.571,0.828 0.571,0.828 0,0 0.554,0.839 0.554,0.839 0,0 0.532,0.846 0.532,0.846 0,0 0.507,0.852 0.507,0.852"
           id="path519"
           inkscape:connector-curvature="0"
           style="fill-opacity:0;stroke:#000000;stroke-width:1;stroke-linecap:butt;stroke-linejoin:miter;stroke-miterlimit:10;stroke-opacity:1" />
      </g>
      <g
         transform="translate(201.841,34.405)"
         id="g521"
         style="opacity:1">
        <path
           stroke-miterlimit="10"
           d="m 0,0 m 1.261,-8.869 c 0,0 -0.019,-0.006 -0.051,-0.016 -0.016,-0.004 -0.036,-0.008 -0.059,-0.013 -0.024,-0.004 -0.051,-0.008 -0.08,-0.013 -0.03,-0.001 -0.062,-0.003 -0.097,-0.005 -0.035,0.001 -0.072,0.003 -0.112,0.004 0,0 -0.061,0.007 -0.061,0.007 0,0 -0.063,0.012 -0.063,0.012 0,0 -0.067,0.016 -0.067,0.016 0,0 -0.068,0.021 -0.068,0.021 0,0 -0.071,0.027 -0.071,0.027 0,0 -0.071,0.032 -0.071,0.032 0,0 -0.073,0.04 -0.073,0.04 0,0 -0.074,0.047 -0.074,0.047 0,0 -0.075,0.054 -0.075,0.054 0,0 -0.076,0.063 -0.076,0.063 0,0 -0.075,0.072 -0.075,0.072 0,0 -0.075,0.081 -0.075,0.081 0,0 -0.074,0.091 -0.074,0.091 0,0 -0.074,0.101 -0.074,0.101 0,0 -0.073,0.112 -0.073,0.112 0,0 -0.071,0.124 -0.071,0.124 0,0 -0.069,0.135 -0.069,0.135 0,0 -0.068,0.148 -0.068,0.148 -0.02,0.052 -0.042,0.106 -0.064,0.161 -0.021,0.056 -0.041,0.115 -0.063,0.175 -0.029,0.094 -0.06,0.191 -0.091,0.291 -0.027,0.101 -0.055,0.205 -0.084,0.311 -0.025,0.107 -0.05,0.216 -0.077,0.329 -0.022,0.113 -0.046,0.228 -0.069,0.345 -0.039,0.237 -0.079,0.483 -0.12,0.738 -0.031,0.256 -0.064,0.52 -0.097,0.791 -0.023,0.273 -0.048,0.553 -0.073,0.838 -0.018,0.285 -0.035,0.575 -0.054,0.871 -0.01,0.295 -0.022,0.595 -0.034,0.898 -0.007,0.303 -0.013,0.609 -0.018,0.915 0,0 0,0.007 0,0.007 0,0 -10e-4,1.399 -10e-4,1.399 0.008,0.465 0.017,0.93 0.025,1.386 0.016,0.456 0.031,0.904 0.046,1.34 0.02,0.435 0.04,0.858 0.059,1.262 0.104,1.616 0.189,2.943 0.233,3.637 0,0 0.011,0.109 0.011,0.109 0,0 0.017,0.113 0.017,0.113 0,0 0.023,0.115 0.023,0.115 0,0 0.029,0.118 0.029,0.118 0.025,0.078 0.051,0.159 0.077,0.243 0.031,0.082 0.065,0.166 0.099,0.253"
           id="path523"
           inkscape:connector-curvature="0"
           style="fill-opacity:0;stroke:#000000;stroke-width:1;stroke-linecap:butt;stroke-linejoin:miter;stroke-miterlimit:10;stroke-opacity:1" />
      </g>
      <g
         transform="translate(31.515,33.05)"
         id="g525"
         style="opacity:1">
        <path
           stroke-miterlimit="10"
           d="m 0,0 m 0.695,-10.314 c 0,0 -0.118,0.199 -0.118,0.199 0,0 -0.11,0.211 -0.11,0.211 0,0 -0.106,0.218 -0.106,0.218 0,0 -0.099,0.23 -0.099,0.23 0,0 -0.093,0.239 -0.093,0.239 0,0 -0.089,0.246 -0.089,0.246 0,0 -0.083,0.256 -0.083,0.256 0,0 -0.076,0.264 -0.076,0.264 -0.045,0.179 -0.093,0.362 -0.14,0.549 -0.039,0.189 -0.079,0.382 -0.119,0.578 -0.033,0.198 -0.066,0.398 -0.1,0.601 -0.027,0.205 -0.054,0.414 -0.082,0.625 -0.022,0.212 -0.043,0.427 -0.065,0.644 -0.016,0.217 -0.033,0.436 -0.05,0.658 -0.012,0.222 -0.024,0.446 -0.035,0.672 0,0 -0.021,0.683 -0.021,0.683 -0.002,0.457 -0.003,0.918 -0.004,1.38 0.013,0.462 0.024,0.925 0.036,1.385 0.024,0.459 0.049,0.916 0.072,1.365 0.033,0.449 0.067,0.891 0.099,1.321 0.04,0.43 0.079,0.85 0.116,1.254 0.044,0.403 0.085,0.793 0.125,1.162 0.093,0.738 0.178,1.4 0.248,1.954 0.08,0.553 0.144,0.998 0.187,1.302 0.029,0.161 0.07,0.408 0.119,0.685 0.054,0.277 0.114,0.585 0.17,0.873 0.117,0.577 0.218,1.074 0.218,1.074"
           id="path527"
           inkscape:connector-curvature="0"
           style="fill-opacity:0;stroke:#000000;stroke-width:1;stroke-linecap:butt;stroke-linejoin:miter;stroke-miterlimit:10;stroke-opacity:1" />
      </g>
      <g
         transform="translate(40.506,33.072)"
         id="g529"
         style="opacity:1">
        <path
           stroke-miterlimit="10"
           d="m 0,0 m 8.296,10.335 c -0.034,-0.074 -0.069,-0.151 -0.105,-0.229 -0.04,-0.077 -0.08,-0.156 -0.121,-0.236 -0.044,-0.079 -0.087,-0.16 -0.134,-0.243 -0.049,-0.081 -0.099,-0.164 -0.15,-0.248 -0.109,-0.165 -0.221,-0.336 -0.339,-0.513 -0.124,-0.172 -0.252,-0.35 -0.384,-0.532 -0.139,-0.178 -0.282,-0.361 -0.428,-0.548 -0.151,-0.183 -0.305,-0.37 -0.462,-0.56 -0.161,-0.187 -0.326,-0.377 -0.493,-0.57 -0.169,-0.19 -0.34,-0.382 -0.513,-0.576 -0.353,-0.382 -0.714,-0.769 -1.073,-1.158 -0.365,-0.383 -0.73,-0.767 -1.089,-1.144 -0.717,-0.757 -1.411,-1.489 -2.034,-2.147 -0.348,-0.382 -0.714,-0.785 -1.093,-1.202 -0.375,-0.423 -0.765,-0.861 -1.166,-1.312 -0.393,-0.458 -0.797,-0.929 -1.209,-1.409 -0.403,-0.489 -0.812,-0.988 -1.228,-1.493 -0.402,-0.516 -0.81,-1.038 -1.22,-1.564 0,0 -0.599,-0.804 -0.599,-0.804 0,0 -0.588,-0.817 -0.588,-0.817 0,0 -0.572,-0.828 -0.572,-0.828 0,0 -0.554,-0.839 -0.554,-0.839 0,0 -0.53,-0.846 -0.53,-0.846 0,0 -0.508,-0.852 -0.508,-0.852"
           id="path531"
           inkscape:connector-curvature="0"
           style="fill-opacity:0;stroke:#000000;stroke-width:1;stroke-linecap:butt;stroke-linejoin:miter;stroke-miterlimit:10;stroke-opacity:1" />
      </g>
      <g
         transform="translate(48.159,31.696)"
         id="g533"
         style="opacity:1">
        <path
           stroke-miterlimit="10"
           d="m 0,0 m -1.262,8.869 c 0,0 0.019,0.006 0.051,0.016 0.016,0.004 0.036,0.008 0.06,0.013 0.023,0.004 0.05,0.008 0.079,0.013 0.03,0.001 0.062,0.003 0.098,0.005 0.035,-0.001 0.072,-0.003 0.111,-0.004 0,0 0.062,-0.007 0.062,-0.007 0,0 0.063,-0.012 0.063,-0.012 0,0 0.066,-0.016 0.066,-0.016 0,0 0.068,-0.021 0.068,-0.021 0,0 0.071,-0.027 0.071,-0.027 0,0 0.071,-0.032 0.071,-0.032 0,0 0.075,-0.04 0.075,-0.04 0,0 0.073,-0.047 0.073,-0.047 0,0 0.074,-0.054 0.074,-0.054 0,0 0.077,-0.063 0.077,-0.063 0,0 0.074,-0.072 0.074,-0.072 0,0 0.075,-0.081 0.075,-0.081 0,0 0.075,-0.091 0.075,-0.091 0,0 0.074,-0.101 0.074,-0.101 0,0 0.073,-0.112 0.073,-0.112 0,0 0.071,-0.124 0.071,-0.124 0,0 0.069,-0.136 0.069,-0.136 0,0 0.067,-0.147 0.067,-0.147 0.021,-0.052 0.043,-0.106 0.065,-0.161 0.02,-0.056 0.041,-0.115 0.062,-0.175 0.03,-0.094 0.061,-0.191 0.093,-0.291 0.026,-0.101 0.053,-0.205 0.082,-0.311 0.025,-0.107 0.05,-0.216 0.077,-0.329 0.022,-0.113 0.046,-0.228 0.069,-0.345 0.039,-0.237 0.079,-0.483 0.121,-0.738 0.031,-0.256 0.064,-0.52 0.097,-0.792 0.024,-0.272 0.047,-0.551 0.073,-0.836 0.017,-0.285 0.036,-0.576 0.054,-0.872 0.011,-0.295 0.022,-0.595 0.034,-0.898 0.006,-0.303 0.012,-0.609 0.018,-0.915 0,0 0,-0.007 0,-0.007 0,0 0.002,-1.399 0.002,-1.399 -0.009,-0.466 -0.018,-0.929 -0.026,-1.385 -0.016,-0.456 -0.032,-0.904 -0.047,-1.34 -0.02,-0.435 -0.04,-0.858 -0.059,-1.262 -0.103,-1.616 -0.188,-2.943 -0.233,-3.637 0,0 -0.01,-0.109 -0.01,-0.109 0,0 -0.017,-0.113 -0.017,-0.113 0,0 -0.024,-0.115 -0.024,-0.115 0,0 -0.028,-0.118 -0.028,-0.118 -0.024,-0.078 -0.05,-0.159 -0.076,-0.243 -0.032,-0.082 -0.067,-0.166 -0.101,-0.254"
           id="path535"
           inkscape:connector-curvature="0"
           style="fill-opacity:0;stroke:#000000;stroke-width:1;stroke-linecap:butt;stroke-linejoin:miter;stroke-miterlimit:10;stroke-opacity:1" />
      </g>
      <g
         transform="translate(40,24.565)"
         id="g537"
         style="opacity:1">
        <path
           stroke-miterlimit="10"
           d="m 0,0 m 10.314,0.695 c 0,0 -0.199,-0.118 -0.199,-0.118 0,0 -0.211,-0.11 -0.211,-0.11 0,0 -0.218,-0.106 -0.218,-0.106 0,0 -0.23,-0.099 -0.23,-0.099 0,0 -0.239,-0.093 -0.239,-0.093 0,0 -0.246,-0.088 -0.246,-0.088 0,0 -0.256,-0.084 -0.256,-0.084 0,0 -0.264,-0.076 -0.264,-0.076 -0.179,-0.045 -0.362,-0.092 -0.549,-0.139 -0.189,-0.039 -0.382,-0.079 -0.578,-0.119 -0.198,-0.033 -0.399,-0.067 -0.603,-0.101 -0.205,-0.027 -0.412,-0.054 -0.623,-0.082 -0.212,-0.022 -0.427,-0.042 -0.644,-0.065 -0.217,-0.016 -0.436,-0.032 -0.658,-0.049 -0.222,-0.012 -0.446,-0.024 -0.672,-0.035 0,0 -0.683,-0.021 -0.683,-0.021 -0.457,-0.002 -0.918,-0.004 -1.38,-0.005 -0.462,0.013 -0.925,0.025 -1.385,0.037 -0.46,0.024 -0.916,0.048 -1.365,0.071 -0.449,0.033 -0.892,0.067 -1.323,0.099 -0.43,0.04 -0.849,0.079 -1.253,0.116 -0.404,0.044 -0.792,0.086 -1.161,0.126 -0.738,0.093 -1.401,0.177 -1.955,0.247 -0.553,0.08 -0.998,0.144 -1.302,0.187 -0.161,0.029 -0.407,0.071 -0.685,0.12 -0.276,0.054 -0.585,0.114 -0.874,0.17 -0.576,0.117 -1.072,0.217 -1.072,0.217"
           id="path539"
           inkscape:connector-curvature="0"
           style="fill-opacity:0;stroke:#000000;stroke-width:1;stroke-linecap:butt;stroke-linejoin:miter;stroke-miterlimit:10;stroke-opacity:1" />
      </g>
      <g
         transform="translate(39.979,33.556)"
         id="g541"
         style="opacity:1">
        <path
           stroke-miterlimit="10"
           d="m 0,0 m -10.335,8.296 c 0.074,-0.034 0.151,-0.068 0.229,-0.104 0.077,-0.04 0.156,-0.08 0.236,-0.121 0.079,-0.044 0.16,-0.088 0.243,-0.135 0.081,-0.049 0.164,-0.098 0.248,-0.149 0.165,-0.109 0.336,-0.221 0.513,-0.339 0.172,-0.124 0.349,-0.253 0.532,-0.385 0.178,-0.139 0.361,-0.282 0.548,-0.428 0.183,-0.151 0.37,-0.305 0.56,-0.462 0.187,-0.161 0.377,-0.325 0.57,-0.492 0.19,-0.169 0.382,-0.341 0.576,-0.514 0.381,-0.353 0.769,-0.713 1.158,-1.072 0.383,-0.365 0.767,-0.73 1.144,-1.09 0.757,-0.717 1.489,-1.41 2.147,-2.033 0.382,-0.348 0.784,-0.715 1.202,-1.094 0.423,-0.375 0.861,-0.765 1.312,-1.166 0.458,-0.393 0.929,-0.797 1.409,-1.209 0.489,-0.403 0.988,-0.813 1.493,-1.229 0.515,-0.402 1.038,-0.81 1.563,-1.22 0,0 0.805,-0.599 0.805,-0.599 0,0 0.817,-0.587 0.817,-0.587 0,0 0.828,-0.572 0.828,-0.572 0,0 0.839,-0.554 0.839,-0.554 0,0 0.846,-0.531 0.846,-0.531 0,0 0.852,-0.507 0.852,-0.507"
           id="path543"
           inkscape:connector-curvature="0"
           style="fill-opacity:0;stroke:#000000;stroke-width:1;stroke-linecap:butt;stroke-linejoin:miter;stroke-miterlimit:10;stroke-opacity:1" />
      </g>
      <g
         transform="translate(41.355,41.209)"
         id="g545"
         style="opacity:1">
        <path
           stroke-miterlimit="10"
           d="m 0,0 m -8.868,-1.262 c 0,0 -0.007,0.02 -0.017,0.052 -0.004,0.016 -0.008,0.037 -0.013,0.06 -0.004,0.023 -0.008,0.049 -0.013,0.078 -0.001,0.03 -0.002,0.064 -0.004,0.099 10e-4,0.035 0.003,0.071 0.004,0.11 0,0 0.006,0.062 0.006,0.062 0,0 0.012,0.063 0.012,0.063 0,0 0.016,0.067 0.016,0.067 0,0 0.022,0.067 0.022,0.067 0,0 0.026,0.071 0.026,0.071 0,0 0.032,0.071 0.032,0.071 0,0 0.04,0.075 0.04,0.075 0,0 0.047,0.074 0.047,0.074 0,0 0.054,0.073 0.054,0.073 0,0 0.064,0.077 0.064,0.077 0,0 0.071,0.074 0.071,0.074 0,0 0.082,0.075 0.082,0.075 0,0 0.09,0.076 0.09,0.076 0,0 0.102,0.073 0.102,0.073 0,0 0.112,0.073 0.112,0.073 0,0 0.123,0.071 0.123,0.071 0,0 0.135,0.069 0.135,0.069 0,0 0.148,0.067 0.148,0.067 0.052,0.021 0.106,0.043 0.161,0.065 0.056,0.02 0.115,0.041 0.175,0.062 0.094,0.03 0.191,0.061 0.291,0.093 0.101,0.026 0.206,0.053 0.312,0.082 0.107,0.025 0.215,0.051 0.328,0.078 0.113,0.023 0.228,0.045 0.345,0.068 0.237,0.039 0.483,0.079 0.738,0.121 0.256,0.031 0.52,0.064 0.791,0.097 0.273,0.024 0.552,0.047 0.837,0.073 0.285,0.017 0.576,0.036 0.872,0.054 0.295,0.011 0.596,0.023 0.899,0.035 0.303,0.006 0.608,0.011 0.914,0.017 0,0 0.007,0 0.007,0 0,0 1.399,0.002 1.399,0.002 0.465,-0.009 0.929,-0.018 1.385,-0.026 0.456,-0.016 0.905,-0.032 1.341,-0.047 0.435,-0.02 0.857,-0.039 1.261,-0.058 1.616,-0.103 2.944,-0.188 3.638,-0.233 0,0 0.109,-0.011 0.109,-0.011 0,0 0.113,-0.017 0.113,-0.017 0,0 0.114,-0.024 0.114,-0.024 0,0 0.118,-0.028 0.118,-0.028 0.078,-0.024 0.16,-0.05 0.244,-0.076 0.082,-0.032 0.165,-0.066 0.252,-0.1"
           id="path547"
           inkscape:connector-curvature="0"
           style="fill-opacity:0;stroke:#000000;stroke-width:1;stroke-linecap:butt;stroke-linejoin:miter;stroke-miterlimit:10;stroke-opacity:1" />
      </g>
      <g
         transform="translate(125,126.8)"
         id="g549"
         style="opacity:1">
        <path
           d="m 0,0 m 0,81.25 c -39.977,0 -72.5,-32.523 -72.5,-72.5 0,0 0,-90 0,-90 0,0 145,0 145,0 0,0 0,90 0,90 0,39.977 -32.523,72.5 -72.5,72.5 z"
           id="path551"
           inkscape:connector-curvature="0"
           style="fill:#ffffff;fill-opacity:1" />
        <path
           stroke-miterlimit="10"
           d="m 0,0 m 0,81.25 c -39.977,0 -72.5,-32.523 -72.5,-72.5 0,0 0,-90 0,-90 0,0 145,0 145,0 0,0 0,90 0,90 0,39.977 -32.523,72.5 -72.5,72.5 z"
           id="path553"
           inkscape:connector-curvature="0"
           style="fill-opacity:0;stroke:#000000;stroke-width:1;stroke-linecap:butt;stroke-linejoin:miter;stroke-miterlimit:10;stroke-opacity:1" />
      </g>
      <g
         transform="translate(39.873,32.326)"
         id="g555"
         style="opacity:1">
        <path
           d="m 0,0 m 11.475,-8.968 c 0,0 0,20.544 0,20.544 0,0 -20.543,0 -20.543,0 0,0 -2.406,-12.023 0,-20.544 8.442,-2.608 20.543,0 20.543,0 z"
           id="path557"
           inkscape:connector-curvature="0"
           style="fill:#ffffff;fill-opacity:1" />
        <path
           stroke-miterlimit="10"
           d="m 0,0 m 11.475,-8.968 c 0,0 0,20.544 0,20.544 0,0 -20.543,0 -20.543,0 0,0 -2.406,-12.023 0,-20.544 8.442,-2.608 20.543,0 20.543,0 z"
           id="path559"
           inkscape:connector-curvature="0"
           style="fill-opacity:0;stroke:#000000;stroke-width:1;stroke-linecap:butt;stroke-linejoin:miter;stroke-miterlimit:10;stroke-opacity:1" />
      </g>
      <g
         transform="translate(210.126,32.326)"
         id="g561"
         style="opacity:1">
        <path
           d="m 0,0 m -11.474,-8.968 c 0,0 0,20.544 0,20.544 0,0 20.543,0 20.543,0 0,0 2.405,-12.023 0,-20.544 -8.442,-2.608 -20.543,0 -20.543,0 z"
           id="path563"
           inkscape:connector-curvature="0"
           style="fill:#ffffff;fill-opacity:1" />
        <path
           stroke-miterlimit="10"
           d="m 0,0 m -11.474,-8.968 c 0,0 0,20.544 0,20.544 0,0 20.543,0 20.543,0 0,0 2.405,-12.023 0,-20.544 -8.442,-2.608 -20.543,0 -20.543,0 z"
           id="path565"
           inkscape:connector-curvature="0"
           style="fill-opacity:0;stroke:#000000;stroke-width:1;stroke-linecap:butt;stroke-linejoin:miter;stroke-miterlimit:10;stroke-opacity:1" />
      </g>
    </g>
    <g
       mask="url(#ly_gjZapUGOvl)"
       id="g567">
      <g
         style="opacity:1"
         id="g569">
        <g
           transform="translate(105.34,137.479)"
           id="g571"
           style="opacity:1">
          <path
             stroke-miterlimit="10"
             d="m 0,0 m 2.917,4.75 c 0,0 -5.834,0 -5.834,0 0,0 0,-6.583 0,-6.583 0,-1.611 1.306,-2.917 2.916,-2.917 1.611,0 2.918,1.306 2.918,2.917 0,0 0,6.583 0,6.583 z"
             id="path573"
             inkscape:connector-curvature="0"
             style="fill-opacity:0;stroke:#000000;stroke-width:1;stroke-linecap:butt;stroke-linejoin:miter;stroke-miterlimit:10;stroke-opacity:1" />
        </g>
        <g
           transform="translate(115.173,83.355)"
           id="g575"
           style="opacity:1">
          <path
             stroke-miterlimit="10"
             d="m 0,0 m 2.917,4.75 c 0,0 -5.834,0 -5.834,0 0,0 0,-6.583 0,-6.583 0,-1.611 1.306,-2.917 2.916,-2.917 1.611,0 2.918,1.306 2.918,2.917 0,0 0,6.583 0,6.583 z"
             id="path577"
             inkscape:connector-curvature="0"
             style="fill-opacity:0;stroke:#000000;stroke-width:1;stroke-linecap:butt;stroke-linejoin:miter;stroke-miterlimit:10;stroke-opacity:1" />
        </g>
        <g
           id="g579"
           style="opacity:1">
          <path
             stroke-miterlimit="10"
             d="m 0,0 m 107.095,74.875 c 0,0 6.245,0 6.245,0"
             id="path581"
             inkscape:connector-curvature="0"
             style="fill-opacity:0;stroke:#000000;stroke-width:1;stroke-linecap:butt;stroke-linejoin:miter;stroke-miterlimit:10;stroke-opacity:1" />
        </g>
        <g
           transform="translate(126.286,90.134)"
           id="g583"
           style="opacity:1">
          <path
             stroke-miterlimit="10"
             d="m 0,0 m 0,-26.821 c 0,0 2.045,0 2.045,0 0,0 0,-8.965 0,-8.965 0,0 8.18,0 8.18,0 0,0 0,8.965 0,8.965 0,0 6.881,0 6.881,0 0,0 0,-8.965 0,-8.965 0,0 8.141,0 8.141,0 0,0 0,14.078 0,14.078 0,0 -6.057,6.45 -6.057,6.45 0,0 1.181,34.213 1.181,34.213 0,0 13.843,16.831 13.843,16.831 0,0 -34.214,0 -34.214,0 0,0 -34.214,0 -34.214,0 0,0 13.843,-16.831 13.843,-16.831 0,0 1.18,-34.213 1.18,-34.213 0,0 -6.057,-6.45 -6.057,-6.45 0,0 0,-14.078 0,-14.078 0,0 8.141,0 8.141,0 0,0 0,8.965 0,8.965 0,0 6.882,0 6.882,0 0,0 0,-8.965 0,-8.965 0,0 8.18,0 8.18,0 0,0 0,8.965 0,8.965 0,0 2.045,0 2.045,0 z"
             id="path585"
             inkscape:connector-curvature="0"
             style="fill-opacity:0;stroke:#000000;stroke-width:1;stroke-linecap:butt;stroke-linejoin:miter;stroke-miterlimit:10;stroke-opacity:1" />
        </g>
        <g
           transform="translate(126.286,147.461)"
           id="g587"
           style="opacity:1">
          <path
             stroke-miterlimit="10"
             d="m 0,0 m 33.029,-21.541 c 0,0 -2.5,2.247 -2.5,2.247 0,0 0,40.834 0,40.834 0,0 -22.5,0 -22.5,0 0,0 0,-15.168 0,-15.168 0,-10.833 -3.725,-14.5 -8.028,-14.5 -4.304,0 -8.031,3.667 -8.031,14.5 0,0 0,15.168 0,15.168 0,0 -22.5,0 -22.5,0 0,0 0,-40.834 0,-40.834 0,0 -2.5,-2.247 -2.5,-2.247"
             id="path589"
             inkscape:connector-curvature="0"
             style="fill-opacity:0;stroke:#000000;stroke-width:1;stroke-linecap:butt;stroke-linejoin:miter;stroke-miterlimit:10;stroke-opacity:1" />
        </g>
        <g
           transform="translate(147.232,137.479)"
           id="g591"
           style="opacity:1">
          <path
             stroke-miterlimit="10"
             d="m 0,0 m -2.917,4.75 c 0,0 5.833,0 5.833,0 0,0 0,-6.583 0,-6.583 0,-1.611 -1.306,-2.917 -2.916,-2.917 -1.611,0 -2.917,1.306 -2.917,2.917 0,0 0,6.583 0,6.583 z"
             id="path593"
             inkscape:connector-curvature="0"
             style="fill-opacity:0;stroke:#000000;stroke-width:1;stroke-linecap:butt;stroke-linejoin:miter;stroke-miterlimit:10;stroke-opacity:1" />
        </g>
        <g
           transform="translate(137.399,83.355)"
           id="g595"
           style="opacity:1">
          <path
             stroke-miterlimit="10"
             d="m 0,0 m -2.916,4.75 c 0,0 5.833,0 5.833,0 0,0 0,-6.583 0,-6.583 0,-1.611 -1.307,-2.917 -2.918,-2.917 -1.61,0 -2.915,1.306 -2.915,2.917 0,0 0,6.583 0,6.583 z"
             id="path597"
             inkscape:connector-curvature="0"
             style="fill-opacity:0;stroke:#000000;stroke-width:1;stroke-linecap:butt;stroke-linejoin:miter;stroke-miterlimit:10;stroke-opacity:1" />
        </g>
        <g
           transform="translate(126.286,96.855)"
           id="g599"
           style="opacity:1">
          <path
             stroke-miterlimit="10"
             d="m 0,0 m 0.001,-4.75 c 1.61,0 2.916,1.306 2.916,2.917 0,0 0,6.583 0,6.583 0,0 -2.916,0 -2.916,0 0,0 -2.918,0 -2.918,0 0,0 0,-6.583 0,-6.583 0,-1.611 1.307,-2.917 2.918,-2.917 z"
             id="path601"
             inkscape:connector-curvature="0"
             style="fill-opacity:0;stroke:#000000;stroke-width:1;stroke-linecap:butt;stroke-linejoin:miter;stroke-miterlimit:10;stroke-opacity:1" />
        </g>
        <g
           id="g603"
           style="opacity:1">
          <path
             stroke-miterlimit="10"
             d="m 0,0 m 147.982,68.875 c 0,0 -21.696,0 -21.696,0 0,0 -21.697,0 -21.697,0"
             id="path605"
             inkscape:connector-curvature="0"
             style="fill-opacity:0;stroke:#000000;stroke-width:1;stroke-linecap:butt;stroke-linejoin:miter;stroke-miterlimit:10;stroke-opacity:1" />
        </g>
        <g
           id="g607"
           style="opacity:1">
          <path
             stroke-miterlimit="10"
             d="m 0,0 m 145.477,74.875 c 0,0 -6.244,0 -6.244,0"
             id="path609"
             inkscape:connector-curvature="0"
             style="fill-opacity:0;stroke:#000000;stroke-width:1;stroke-linecap:butt;stroke-linejoin:miter;stroke-miterlimit:10;stroke-opacity:1" />
        </g>
        <g
           transform="translate(126.286,155.725)"
           id="g611"
           style="opacity:1">
          <path
             stroke-miterlimit="10"
             d="m 0,0 m 8.03,-0.725 c 0,0 -2.412,0 -2.412,0 0,0 -1.438,1.45 -1.438,1.45 0,0 -1.327,-1.34 -1.327,-1.34 0,0 -1.595,0 -1.595,0 0,0 -1.257,1.268 -1.257,1.268 0,0 -1.258,-1.268 -1.258,-1.268 0,0 -1.596,0 -1.596,0 0,0 -1.328,1.34 -1.328,1.34 0,0 -1.437,-1.45 -1.437,-1.45 0,0 -2.412,0 -2.412,0"
             id="path613"
             inkscape:connector-curvature="0"
             style="fill-opacity:0;stroke:#000000;stroke-width:1;stroke-linecap:butt;stroke-linejoin:miter;stroke-miterlimit:10;stroke-opacity:1" />
        </g>
      </g>
    </g>
    <g
       mask="url(#ly_vsblmBFHcf)"
       id="g615">
      <g
         style="opacity:1"
         id="g617">
        <g
           transform="translate(125,172.876)"
           id="g619"
           style="opacity:1">
          <path
             d="m 0,0 m 0.001,-8.876 c -24.038,0 -40.728,7.248 -56.203,17.75 0,0 0,0.002 0,0.002 0,0 26.702,41.748 58.452,40.748 31.75,-1 53.952,-40.75 53.952,-40.75 0,0 -10e-4,-0.001 -10e-4,-0.001 -15.475,-10.501 -32.162,-17.749 -56.2,-17.749 z"
             id="path621"
             inkscape:connector-curvature="0"
             style="fill:#ffffff;fill-opacity:1" />
          <path
             stroke-miterlimit="10"
             d="m 0,0 m 0.001,-8.876 c -24.038,0 -40.728,7.248 -56.203,17.75 0,0 0,0.002 0,0.002 0,0 26.702,41.748 58.452,40.748 31.75,-1 53.952,-40.75 53.952,-40.75 0,0 -10e-4,-0.001 -10e-4,-0.001 -15.475,-10.501 -32.162,-17.749 -56.2,-17.749 z"
             id="path623"
             inkscape:connector-curvature="0"
             style="fill-opacity:0;stroke:#000000;stroke-width:1;stroke-linecap:butt;stroke-linejoin:miter;stroke-miterlimit:10;stroke-opacity:1" />
        </g>
      </g>
    </g>
  </g>
</svg>
