<svg xmlns="http://www.w3.org/2000/svg" viewBox="0 0 15.418 16.6">
  <defs>
    <style>
      .cls-1 {
        fill: #bfbfbf;
      }
    </style>
  </defs>
  <g id="Group_51" data-name="Group 51" transform="translate(0 0)">
    <g id="Group_50" data-name="Group 50">
      <path id="Path_4841" data-name="Path 4841" class="cls-1" d="M14.271,2.008H13.009v-.86A1.151,1.151,0,0,0,11.862,0h-.046a1.151,1.151,0,0,0-1.147,1.147v.86H4.749v-.86A1.151,1.151,0,0,0,3.6,0H3.556A1.151,1.151,0,0,0,2.409,1.147v.86H1.147A1.151,1.151,0,0,0,0,3.155v12.3A1.151,1.151,0,0,0,1.147,16.6H14.271a1.151,1.151,0,0,0,1.147-1.147V3.155a1.151,1.151,0,0,0-1.147-1.147Zm-.78,12.78H1.927V5.472H13.491v9.315Zm0,0"/>
    </g>
    <path id="Path_4842" data-name="Path 4842" class="cls-1" d="M57.984,130.063h2a.181.181,0,0,0,.184-.184v-2a.181.181,0,0,0-.184-.184h-2a.181.181,0,0,0-.184.184v2a.181.181,0,0,0,.184.184Zm0,0" transform="translate(-54.485 -120.375)"/>
    <path id="Path_4843" data-name="Path 4843" class="cls-1" d="M113.984,130.063h2a.181.181,0,0,0,.184-.184v-2a.181.181,0,0,0-.184-.184h-2a.181.181,0,0,0-.184.184v2a.181.181,0,0,0,.184.184Zm0,0" transform="translate(-107.272 -120.375)"/>
    <path id="Path_4844" data-name="Path 4844" class="cls-1" d="M169.984,130.063h2a.181.181,0,0,0,.184-.184v-2a.181.181,0,0,0-.184-.184h-2a.181.181,0,0,0-.184.184v2a.181.181,0,0,0,.184.184Zm0,0" transform="translate(-160.06 -120.375)"/>
    <path id="Path_4845" data-name="Path 4845" class="cls-1" d="M57.984,186.063h2a.181.181,0,0,0,.184-.184v-2a.181.181,0,0,0-.184-.184h-2a.181.181,0,0,0-.184.184v2a.181.181,0,0,0,.184.184Zm0,0" transform="translate(-54.485 -173.163)"/>
    <path id="Path_4846" data-name="Path 4846" class="cls-1" d="M113.984,186.063h2a.181.181,0,0,0,.184-.184v-2a.181.181,0,0,0-.184-.184h-2a.181.181,0,0,0-.184.184v2a.181.181,0,0,0,.184.184Zm0,0" transform="translate(-107.272 -173.163)"/>
    <path id="Path_4847" data-name="Path 4847" class="cls-1" d="M169.984,186.063h2a.181.181,0,0,0,.184-.184v-2a.181.181,0,0,0-.184-.184h-2a.181.181,0,0,0-.184.184v2a.181.181,0,0,0,.184.184Zm0,0" transform="translate(-160.06 -173.163)"/>
  </g>
</svg>
