<?xml version="1.0" encoding="utf-8"?>
<!-- Generator: Adobe Illustrator 22.1.0, SVG Export Plug-In . SVG Version: 6.00 Build 0)  -->
<svg version="1.1" xmlns="http://www.w3.org/2000/svg" xmlns:xlink="http://www.w3.org/1999/xlink" x="0px" y="0px"
	 viewBox="0 0 130 130" style="enable-background:new 0 0 130 130;" xml:space="preserve">
<style type="text/css">
	.st0{fill-rule:evenodd;clip-rule:evenodd;fill:none;stroke:#FFFFFF;stroke-width:5;stroke-linejoin:round;stroke-miterlimit:10;}
	
		.st1{fill-rule:evenodd;clip-rule:evenodd;fill:none;stroke:#FFFFFF;stroke-width:5;stroke-linecap:round;stroke-linejoin:round;stroke-miterlimit:10;}
	.st2{fill:#FFFFFF;}
	.st3{fill:none;stroke:#FFFFFF;stroke-width:5;stroke-linecap:round;stroke-linejoin:round;stroke-miterlimit:10;}
	.st4{fill:none;stroke:#FFFFFF;stroke-width:5;stroke-linejoin:round;stroke-miterlimit:10;}
</style>
<g id="Layer_1">
</g>
<g id="Layer_4">
	<g>
		<g>
			<path class="st0" d="M58.6,80.2l-5.9-5.9l38.1-38.1c1.6-1.6,4.3-1.6,5.9,0l0,0c1.6,1.6,1.6,4.3,0,5.9L58.6,80.2z"/>
			<line class="st0" x1="60.1" y1="66.9" x2="66" y2="72.9"/>
			<path class="st0" d="M52.8,74.4c0,0-7.3-0.1-10.2,2.9c-3.9,3.9-3.6,10.2-10.1,12.7c5.3,5.3,14,8.8,23.9-1.1c4-4,1.6-9.3,1.6-9.3
				L52.8,74.4z"/>
		</g>
		<path class="st1" d="M28,44.4h27.6c3.4,0,6.2,2.8,6.2,6.2v0c0,3.4-2.8,6.2-6.2,6.2H35.5c-3.4,0-6.2,2.8-6.2,6.2v0.9
			c0,3.4,2.8,6.2,6.2,6.2H39"/>
	</g>
</g>
<g id="Layer_3">
</g>
<g id="Layer_2">
</g>
</svg>
