<svg id="Group_29" data-name="Group 29" xmlns="http://www.w3.org/2000/svg" viewBox="0 0 37.852 37.852">
  <defs>
    <style>
      .cls-1 {
        fill: #FFF;
      }
    </style>
  </defs>
  <path id="Path_2798" data-name="Path 2798" class="cls-1" d="M18.926,0A18.926,18.926,0,1,0,37.852,18.926,18.982,18.982,0,0,0,18.926,0Zm0,35.523a16.6,16.6,0,1,1,16.6-16.6,16.589,16.589,0,0,1-16.6,16.6Zm0,0"/>
  <path id="Path_2799" data-name="Path 2799" class="cls-1" d="M27.631,14.865A1.965,1.965,0,1,1,25.665,12.9a2.056,2.056,0,0,1,1.965,1.965Zm0,0" transform="translate(-6.448 -3.51)"/>
  <path id="Path_2800" data-name="Path 2800" class="cls-1" d="M25.265,22.7A1.15,1.15,0,0,0,24.1,23.865v9.9a1.165,1.165,0,1,0,2.329,0v-9.9A1.15,1.15,0,0,0,25.265,22.7Zm0,0" transform="translate(-6.557 -6.176)"/>
</svg>
